<?xml version="1.0" encoding="utf-8"?>
<!-- Generator: Adobe Illustrator 19.0.0, SVG Export Plug-In . SVG Version: 6.00 Build 0)  -->
<svg version="1.1" id="Layer_1" xmlns="http://www.w3.org/2000/svg" xmlns:xlink="http://www.w3.org/1999/xlink" x="0px" y="0px"
	 viewBox="0 0 631.2 175" style="enable-background:new 0 0 631.2 175;" xml:space="preserve">
<g id="XMLID_1_">
	<linearGradient id="XMLID_41_" gradientUnits="userSpaceOnUse" x1="87" y1="66" x2="241" y2="66">
		<stop  offset="0" style="stop-color:#5BDAEF"/>
		<stop  offset="1" style="stop-color:#596ED3"/>
	</linearGradient>
	<path id="XMLID_9_" style="fill:url(#XMLID_41_);" d="M87,0v100h79l43,32v-32h32V0H87z M114,29h58v15h-58V29z M212,73h-98V58h98V73
		z M212,44h-20V29h20V44z"/>
	<linearGradient id="XMLID_42_" gradientUnits="userSpaceOnUse" x1="0" y1="109" x2="154" y2="109">
		<stop  offset="0" style="stop-color:#5BDAEF"/>
		<stop  offset="1" style="stop-color:#596ED3"/>
	</linearGradient>
	<polygon id="XMLID_11_" style="fill:url(#XMLID_42_);" points="124,110 124,120 104,120 104,110 87,110 87,120 28,120 28,105 
		77,105 77,88 28,88 28,73 77,73 77,43 0,43 0,143 32,143 32,175 76,143 154,143 154,110 	"/>
</g>
<g id="XMLID_3_">
	<path id="XMLID_4_" style="fill:#596ED3;" d="M317.5,88.8c-0.3,2.8-1.1,5.2-2.4,7.5c-1.2,2.2-2.8,4.2-4.8,5.8
		c-1.9,1.6-4.1,2.8-6.6,3.7c-2.5,0.9-5.1,1.3-8,1.3c-3.2,0-6.1-0.5-8.8-1.6c-2.7-1.1-4.9-2.7-6.9-4.8c-1.9-2.1-3.4-4.8-4.5-8
		s-1.6-6.9-1.6-11.1c0-4.2,0.5-7.9,1.6-10.9s2.5-5.6,4.5-7.5c1.9-2,4.2-3.4,7-4.4c2.7-1,5.7-1.4,9.1-1.4c3.1,0,5.9,0.4,8.4,1.2
		c2.5,0.8,4.7,2,6.6,3.6c1.9,1.6,3.4,3.5,4.5,5.8c1.1,2.2,1.7,4.7,1.9,7.5h-12.6c-0.3-2.4-1.3-4.3-2.9-5.7c-1.6-1.4-3.6-2.1-6-2.1
		c-1.3,0-2.6,0.2-3.7,0.7c-1.2,0.4-2.2,1.2-3,2.3s-1.6,2.5-2.1,4.2c-0.5,1.8-0.8,3.9-0.8,6.5c0,5.2,0.9,9,2.8,11.5
		c1.9,2.5,4,3.7,6.4,3.7c2.4,0,4.5-0.7,6.2-2c1.7-1.3,2.7-3.3,3-5.9H317.5z"/>
	<path id="XMLID_6_" style="fill:#596ED3;" d="M350.9,105.8V76.6c0-3.6-0.6-6-1.9-7.3c-1.2-1.3-3.3-2-6.2-2c-1.5,0-2.9,0.3-4.1,0.9
		c-1.2,0.6-2.2,1.4-3.1,2.5c-0.8,1.1-1.5,2.3-1.9,3.6c-0.4,1.4-0.6,2.9-0.6,4.5v27.1h-12.5V41.3h12.5v23.4c0.4-1,1.1-2,2.1-2.9
		c0.9-0.9,2-1.7,3.2-2.4c1.2-0.6,2.6-1.2,4-1.5c1.5-0.4,3-0.6,4.6-0.6c4.9,0,8.8,1.3,11.9,4c3,2.7,4.6,6.4,4.6,11.1v33.4H350.9z"/>
	<path id="XMLID_14_" style="fill:#596ED3;" d="M368.8,53V41.3h12.5V53H368.8z M368.8,105.8V58.6h12.5v47.2H368.8z"/>
	<path id="XMLID_17_" style="fill:#596ED3;" d="M413.3,74.7h11.6v13.4c0,2.5-0.4,4.9-1.1,7.1c-0.7,2.3-1.9,4.3-3.5,6
		c-1.6,1.8-3.6,3.2-6,4.2c-2.4,1-5.3,1.5-8.6,1.5c-3.5,0-6.4-0.5-8.8-1.5s-4.4-2.4-6-4.1c-1.6-1.7-2.7-3.7-3.4-6
		c-0.7-2.3-1.1-4.7-1.1-7.3V45.9h12.3v12.8h26.1v8.8h-26.1v19.4c0,3,0.6,5.3,1.7,7c1.1,1.6,3,2.4,5.5,2.4c2.5,0,4.3-0.8,5.5-2.4
		c1.2-1.6,1.8-3.9,1.8-6.8V74.7z"/>
	<path id="XMLID_19_" style="fill:#596ED3;" d="M495.7,88.8c-0.3,2.8-1.1,5.2-2.4,7.5c-1.2,2.2-2.8,4.2-4.8,5.8
		c-1.9,1.6-4.1,2.8-6.6,3.7c-2.5,0.9-5.1,1.3-8,1.3c-3.2,0-6.1-0.5-8.8-1.6c-2.7-1.1-4.9-2.7-6.9-4.8c-1.9-2.1-3.4-4.8-4.5-8
		s-1.6-6.9-1.6-11.1c0-4.2,0.5-7.9,1.6-10.9s2.5-5.6,4.5-7.5c1.9-2,4.2-3.4,7-4.4c2.7-1,5.7-1.4,9.1-1.4c3.1,0,5.9,0.4,8.4,1.2
		c2.5,0.8,4.7,2,6.6,3.6c1.9,1.6,3.4,3.5,4.5,5.8c1.1,2.2,1.7,4.7,1.9,7.5h-12.6c-0.3-2.4-1.3-4.3-2.9-5.7c-1.6-1.4-3.6-2.1-6-2.1
		c-1.3,0-2.6,0.2-3.7,0.7c-1.2,0.4-2.2,1.2-3,2.3s-1.6,2.5-2.1,4.2c-0.5,1.8-0.8,3.9-0.8,6.5c0,5.2,0.9,9,2.8,11.5
		c1.9,2.5,4,3.7,6.4,3.7c2.4,0,4.5-0.7,6.2-2c1.7-1.3,2.7-3.3,3-5.9H495.7z"/>
	<path id="XMLID_21_" style="fill:#596ED3;" d="M529,105.8V76.6c0-3.6-0.6-6-1.9-7.3c-1.2-1.3-3.3-2-6.2-2c-1.5,0-2.9,0.3-4.1,0.9
		c-1.2,0.6-2.2,1.4-3.1,2.5c-0.8,1.1-1.5,2.3-1.9,3.6c-0.4,1.4-0.6,2.9-0.6,4.5v27.1h-12.5V41.3h12.5v23.4c0.4-1,1.1-2,2.1-2.9
		c0.9-0.9,2-1.7,3.2-2.4c1.2-0.6,2.6-1.2,4-1.5c1.5-0.4,3-0.6,4.6-0.6c4.9,0,8.8,1.3,11.9,4c3,2.7,4.6,6.4,4.6,11.1v33.4H529z"/>
	<path id="XMLID_23_" style="fill:#596ED3;" d="M576.2,105.8c-0.4-1.2-0.6-2.6-0.8-4.2c-1.5,1.7-3.4,3-5.9,4c-2.4,1-5.2,1.5-8.4,1.5
		c-5.4,0-9.4-1.2-11.9-3.6c-2.5-2.4-3.8-5.5-3.8-9.4c0-3.4,0.5-6.1,1.6-8.1c1.1-2,2.6-3.6,4.5-4.8c1.9-1.2,4.2-2,6.9-2.5
		c2.7-0.5,5.5-1,8.7-1.5c3.1-0.4,5.2-1,6.3-1.8c1.1-0.7,1.6-1.9,1.6-3.6c0-1.5-0.7-2.7-2.2-3.6c-1.4-0.9-3.4-1.3-5.8-1.3
		c-2.9,0-4.9,0.6-6.2,1.9c-1.2,1.3-2,3-2.4,5.1h-11.6c0.1-2.4,0.5-4.7,1.2-6.7c0.7-2,1.9-3.8,3.6-5.3c1.6-1.5,3.8-2.6,6.4-3.4
		c2.6-0.8,5.8-1.2,9.6-1.2c3.7,0,6.9,0.4,9.5,1.2c2.6,0.8,4.7,2,6.2,3.6c1.6,1.6,2.7,3.5,3.4,5.9c0.7,2.3,1.1,5,1.1,7.9v29.8H576.2z
		 M575.3,82.7c-0.6,0.6-1.6,1.2-2.8,1.5c-1.2,0.4-3,0.8-5.3,1.2c-3.6,0.7-6,1.6-7.4,2.7c-1.3,1.1-2,2.7-2,4.7c0,3.5,2,5.3,6,5.3
		c1.6,0,3.1-0.3,4.5-0.8c1.4-0.5,2.6-1.3,3.6-2.2c1-0.9,1.8-2,2.4-3.3c0.6-1.2,0.9-2.6,0.9-4L575.3,82.7z"/>
	<path id="XMLID_26_" style="fill:#596ED3;" d="M619.5,74.7h11.6v13.4c0,2.5-0.4,4.9-1.1,7.1c-0.7,2.3-1.9,4.3-3.5,6
		c-1.6,1.8-3.6,3.2-6,4.2c-2.4,1-5.3,1.5-8.6,1.5c-3.5,0-6.4-0.5-8.8-1.5s-4.4-2.4-6-4.1c-1.6-1.7-2.7-3.7-3.4-6
		c-0.7-2.3-1.1-4.7-1.1-7.3V45.9H605v12.8h26.1v8.8H605v19.4c0,3,0.6,5.3,1.7,7c1.1,1.6,3,2.4,5.5,2.4c2.5,0,4.3-0.8,5.5-2.4
		c1.2-1.6,1.8-3.9,1.8-6.8V74.7z"/>
</g>
</svg>
