<?xml version="1.0" encoding="utf-8"?>
<!-- Generator: Adobe Illustrator 19.0.0, SVG Export Plug-In . SVG Version: 6.00 Build 0)  -->
<svg version="1.1" id="Layer_1" xmlns="http://www.w3.org/2000/svg" xmlns:xlink="http://www.w3.org/1999/xlink" x="0px" y="0px"
	 viewBox="-471 273 16 16" style="enable-background:new -471 273 16 16;" xml:space="preserve">
<style type="text/css">
	.st0{fill:#FFFFFF;}
</style>
<path class="st0" d="M-463.5,284.1c0.2-0.5,1.5-2.2,1.5-5.1c0-1.7-1.3-3-3-3s-3,1.3-3,3c0,2.9,1.3,4.6,1.5,5.1
	c-1.5,0.1-4.5,1.1-4.5,2.9c0,0.4,0.3,1,1,1h10c0.7,0,1-0.6,1-1C-459,285.2-462,284.2-463.5,284.1z M-458.4,281
	c0.2-0.7,1.4-2.8,1.4-4c0-1.7-1.3-3-3-3c-0.8,0-1.6,0.3-2.1,0.9c1.3,0.9,2.1,2.4,2.1,4.1c0,1.5-0.3,2.8-0.6,3.7
	c0.8,0.3,1.5,0.7,2.1,1.3h2.5c0.6,0,1-0.5,1-1C-455,281.7-457.4,281.2-458.4,281z"/>
</svg>
