<?xml version="1.0" encoding="utf-8"?>
<!-- Generator: Adobe Illustrator 19.0.0, SVG Export Plug-In . SVG Version: 6.00 Build 0)  -->
<svg version="1.1" id="Layer_1" xmlns="http://www.w3.org/2000/svg" xmlns:xlink="http://www.w3.org/1999/xlink" x="0px" y="0px"
	 viewBox="-471 273 16 16" style="enable-background:new -471 273 16 16;" xml:space="preserve">
<style type="text/css">
	.st0{fill:#B9BFC3;}
</style>
<path class="st0" d="M-463,279c0,1.1-0.9,2-2,2c0,1.1,0.9,2,2,2s2-0.9,2-2S-461.9,279-463,279z M-463,275c-4.1,0-8,4.6-8,6
	s3.9,6,8,6s8-4.6,8-6S-458.9,275-463,275z M-463,285c-2.2,0-4-1.8-4-4s1.8-4,4-4c2.2,0,4,1.8,4,4C-459,283.2-460.8,285-463,285z"/>
</svg>
