<?xml version="1.0" encoding="utf-8"?>
<!-- Generator: Adobe Illustrator 19.0.0, SVG Export Plug-In . SVG Version: 6.00 Build 0)  -->
<svg version="1.1" id="Layer_1" xmlns="http://www.w3.org/2000/svg" xmlns:xlink="http://www.w3.org/1999/xlink" x="0px" y="0px"
	 viewBox="-954.3 -12.5 760.6 857.5" style="enable-background:new -954.3 -12.5 760.6 857.5;" xml:space="preserve">
<g>
	<path style="fill:#539E43;" d="M-574.1,845c-11.9,0-22.9-3.3-33-8.6l-104.6-62.1c-15.8-8.6-8-11.9-3.3-13.4
		c21.4-7.1,25.3-8.6,47.3-21.4c2.4-1.5,5.6-0.9,8,0.9l80.3,48.2c3.3,1.5,7.1,1.5,9.5,0l314.2-181.9c3.3-1.5,4.8-4.8,4.8-8.6V234.5
		c0-3.9-1.5-7.1-4.8-8.6L-569.9,44.5c-3.3-1.5-7.1-1.5-9.5,0l-314.2,181.3c-3.3,1.5-4.8,5.6-4.8,8.6v363.2c0,3.3,1.5,7.1,4.8,8.6
		l85.9,49.6c46.4,23.8,75.5-3.9,75.5-31.5V266c0-4.8,3.9-9.5,9.5-9.5h40.1c4.8,0,9.5,3.9,9.5,9.5v358.5c0,62.1-33.9,98.4-93,98.4
		c-18.1,0-32.4,0-72.5-19.6l-82.6-47.3c-20.5-11.9-33-33.9-33-57.4V235.1c0-23.8,12.5-45.8,33-57.4L-607.1-4.2
		c19.6-11,46.4-11,66.3,0l314.2,181.9c20.5,11.9,33,33.9,33,57.4v363.2c0,23.8-12.5,45.8-33,57.4l-314.2,181.9
		C-551.2,842.6-563.1,845-574.1,845L-574.1,845z M-477.2,595.3c-137.9,0-166.2-63-166.2-116.5c0-4.8,3.9-9.5,9.5-9.5h41
		c4.8,0,8.6,3.3,8.6,8c6.2,41.6,24.4,62.1,107.9,62.1c66.3,0,94.5-14.9,94.5-50.5c0-20.5-8-35.4-111.2-45.8
		c-85.9-8.6-139.4-27.6-139.4-96c0-63.9,53.5-101.7,143.3-101.7c100.8,0,150.4,34.8,156.6,110.3c0,2.4-0.9,4.8-2.4,7.1
		c-1.5,1.5-3.9,3.3-6.2,3.3h-41c-3.9,0-8-3.3-8.6-7.1c-9.5-43.4-33.9-57.4-98.4-57.4c-72.5,0-81.1,25.3-81.1,44
		c0,22.9,10.1,30,107.9,42.5c96.9,12.5,142.7,30.6,142.7,98.4C-320.5,555.8-377,595.3-477.2,595.3L-477.2,595.3z"/>
</g>
</svg>
