<?xml version="1.0" encoding="utf-8"?>
<!-- Generator: Adobe Illustrator 19.0.0, SVG Export Plug-In . SVG Version: 6.00 Build 0)  -->
<svg version="1.1" id="Layer_2_1_" xmlns="http://www.w3.org/2000/svg" xmlns:xlink="http://www.w3.org/1999/xlink" x="0px" y="0px"
	 viewBox="-677.4 -106.4 1144.8 1019.5" style="enable-background:new -677.4 -106.4 1144.8 1019.5;" xml:space="preserve">
<g>
	<path style="fill:#61DAFB;" d="M467.4,403.5c0-75.8-95-147.7-240.6-192.3c33.6-148.4,18.7-266.5-47.1-304.3
		c-15.2-8.9-32.9-13.1-52.3-13.1v52c10.7,0,19.4,2.1,26.6,6.1c31.7,18.2,45.5,87.5,34.8,176.6c-2.6,21.9-6.8,45-11.9,68.6
		c-45.7-11.2-95.7-19.8-148.2-25.4C-2.8,128.6-35.5,89.4-68.4,55.1C7.7-15.6,79.1-54.4,127.6-54.4v-52l0,0
		c-64.2,0-148.2,45.7-233.1,125.1c-84.9-78.9-168.9-124.1-233.1-124.1v52c48.3,0,119.9,38.5,196,108.7
		c-32.7,34.3-65.3,73.3-96.4,116.4c-52.7,5.6-102.7,14.2-148.4,25.7c-5.4-23.3-9.3-46-12.1-67.7c-11-89.1,2.6-158.4,34.1-176.9
		c7-4.2,16.1-6.1,26.8-6.1v-52l0,0c-19.6,0-37.3,4.2-52.7,13.1c-65.6,37.8-80.3,155.6-46.4,303.6c-145.1,44.8-239.6,116.4-239.6,192
		c0,75.8,95,147.7,240.6,192.3c-33.6,148.4-18.7,266.5,47.1,304.3c15.2,8.9,32.9,13.1,52.5,13.1c64.2,0,148.2-45.7,233.1-125.1
		C-19.1,866.9,64.9,912.2,129,912.2c19.6,0,37.3-4.2,52.7-13.1c65.6-37.8,80.3-155.6,46.4-303.6
		C372.9,550.9,467.4,479.1,467.4,403.5z M163.6,247.8c-8.6,30.1-19.4,61.1-31.5,92.2c-9.6-18.7-19.6-37.3-30.6-56
		c-10.7-18.7-22.2-36.9-33.6-54.6C101,234.3,133,240.4,163.6,247.8z M56.7,496.3c-18.2,31.5-36.9,61.4-56.2,89.1
		c-34.8,3-70,4.7-105.5,4.7c-35.2,0-70.5-1.6-105-4.4c-19.4-27.8-38.3-57.4-56.5-88.7c-17.7-30.6-33.8-61.6-48.5-92.9
		c14.5-31.3,30.8-62.5,48.3-93.1c18.2-31.5,36.9-61.4,56.2-89.1c34.8-3,70-4.7,105.5-4.7c35.2,0,70.5,1.6,105,4.4
		c19.4,27.8,38.3,57.4,56.5,88.7c17.7,30.6,33.8,61.6,48.5,92.9C90.3,434.5,74.2,465.8,56.7,496.3z M132.1,466
		c12.6,31.3,23.3,62.5,32.2,92.9c-30.6,7.5-62.8,13.8-96.1,18.7c11.4-18,22.9-36.4,33.6-55.3C112.5,503.6,122.5,484.7,132.1,466z
		 M-104.5,715c-21.7-22.4-43.4-47.4-64.9-74.7c21,0.9,42.5,1.6,64.2,1.6c21.9,0,43.6-0.5,64.9-1.6C-61.4,667.6-83.1,692.6-104.5,715
		z M-278.1,577.5c-33.1-4.9-65.1-11-95.7-18.4c8.6-30.1,19.4-61.1,31.5-92.2c9.6,18.7,19.6,37.3,30.6,56
		C-300.8,541.6-289.6,559.8-278.1,577.5z M-105.7,91.9c21.7,22.4,43.4,47.4,64.9,74.7c-21-0.9-42.5-1.6-64.2-1.6
		c-21.9,0-43.6,0.5-64.9,1.6C-148.9,139.3-127.2,114.3-105.7,91.9z M-278.4,229.4c-11.4,18-22.9,36.4-33.6,55.3
		c-10.7,18.7-20.8,37.3-30.3,56c-12.6-31.3-23.3-62.5-32.2-92.9C-343.9,240.6-311.7,234.3-278.4,229.4z M-489.6,521.5
		c-82.6-35.2-136-81.4-136-118.1s53.4-83.1,136-118.1c20.1-8.6,42-16.3,64.6-23.6c13.3,45.7,30.8,93.3,52.5,142.1
		c-21.5,48.5-38.7,95.9-51.8,141.4C-447.3,538.1-469.3,530.2-489.6,521.5z M-364,855c-31.7-18.2-45.5-87.5-34.8-176.6
		c2.6-21.9,6.8-45,11.9-68.6c45.7,11.2,95.7,19.8,148.2,25.4c31.5,43.2,64.2,82.4,97.1,116.7c-76.1,70.7-147.5,109.4-196,109.4
		C-348.1,861.1-357,859-364,855z M189.5,677.2c11,89.1-2.6,158.4-34.1,176.9c-7,4.2-16.1,6.1-26.8,6.1c-48.3,0-119.9-38.5-196-108.7
		c32.7-34.3,65.3-73.3,96.4-116.4c52.7-5.6,102.7-14.2,148.4-25.7C182.7,632.8,186.9,655.5,189.5,677.2z M279.3,521.5
		c-20.1,8.6-42,16.3-64.6,23.6c-13.3-45.7-30.8-93.3-52.5-142.1c21.5-48.5,38.7-95.9,51.8-141.4c23.1,7.2,45,15.2,65.6,23.8
		c82.6,35.2,136,81.4,136,118.1C415.4,440.1,361.9,486.5,279.3,521.5z"/>
	<path style="fill:#61DAFB;" d="M-338.8-105.5L-338.8-105.5L-338.8-105.5z"/>
	<circle style="fill:#61DAFB;" cx="-105.2" cy="403.5" r="106.6"/>
	<path style="fill:#61DAFB;" d="M127.2-106.2L127.2-106.2L127.2-106.2z"/>
</g>
</svg>
