<?xml version="1.0" encoding="utf-8"?>
<!-- Generator: Adobe Illustrator 19.0.0, SVG Export Plug-In . SVG Version: 6.00 Build 0)  -->
<svg version="1.1" id="Layer_1" xmlns="http://www.w3.org/2000/svg" xmlns:xlink="http://www.w3.org/1999/xlink" x="0px" y="0px"
	 viewBox="1540 -1817.3 2500.1 2373.3" style="enable-background:new 1540 -1817.3 2500.1 2373.3;" xml:space="preserve">
<path style="fill:#764ABC;" d="M3272.2-159.8c92.3-9.6,162.2-89.1,159.1-184.5c-3.2-95.4-82.7-171.8-178.2-171.8h-6.4
	c-98.6,3.2-175,85.9-171.8,184.5c3.2,47.7,22.3,89.1,50.9,117.7c-108.2,213.2-273.6,369.1-521.7,499.5
	c-168.6,89.1-343.6,120.9-518.6,98.6c-143.2-19.1-254.5-82.7-324.5-187.7c-101.8-155.9-111.3-324.5-25.4-493.1
	c60.4-120.9,155.9-210,216.3-254.5c-12.7-41.4-31.8-111.3-41.4-162.2C1449.3-379.3,1497,72.5,1637,285.6
	c105,159.1,318.1,257.7,553.6,257.7c63.6,0,127.2-6.4,190.9-22.3C2788.7,441.5,3097.3,199.7,3272.2-159.8L3272.2-159.8z
	 M3832.2-554.3c-241.8-283.2-598.1-439-1005.3-439H2776c-28.6-57.3-89.1-95.4-155.9-95.4h-6.4c-98.6,3.2-175,85.9-171.8,184.5
	c3.2,95.4,82.7,171.8,178.2,171.8h6.4c70-3.2,130.4-47.7,155.9-108.2h57.3c241.8,0,470.8,70,677.6,206.8
	c159.1,105,273.6,241.8,337.2,407.2c54.1,133.6,50.9,264.1-6.4,375.4c-89.1,168.6-238.6,260.9-435.8,260.9
	c-127.3,0-248.1-38.2-311.8-66.8c-35,31.8-98.6,82.7-143.2,114.5c136.8,63.6,276.8,98.6,410.4,98.6c305.4,0,531.3-168.6,617.2-337.2
	C4077.1,34.3,4070.8-283.8,3832.2-554.3L3832.2-554.3z M2216-105.7c3.2,95.4,82.7,171.8,178.2,171.8h6.4
	c98.6-3.2,175-85.9,171.8-184.5c-3.2-95.4-82.7-171.8-178.2-171.8h-6.4c-6.4,0-15.9,0-22.3,3.2
	c-130.4-216.4-184.5-451.8-165.4-706.3c12.7-190.9,76.3-356.3,187.7-493.1c92.3-117.7,270.4-175,391.3-178.2
	c337.2-6.4,480.4,413.6,489.9,582.2c41.4,9.5,111.3,31.8,159.1,47.7c-38.2-515.4-356.3-782.6-661.7-782.6
	c-286.3,0-550.4,206.8-655.4,512.2c-146.3,407.2-50.9,798.5,127.3,1107.1C2222.4-175.7,2212.8-140.7,2216-105.7L2216-105.7z"/>
</svg>
