<?xml version="1.0" encoding="utf-8"?>
<!-- Generator: Adobe Illustrator 19.0.0, SVG Export Plug-In . SVG Version: 6.00 Build 0)  -->
<svg version="1.1" id="Layer_1" xmlns="http://www.w3.org/2000/svg" xmlns:xlink="http://www.w3.org/1999/xlink" x="0px" y="0px"
	 viewBox="0 0 149.4 149.4" style="enable-background:new 0 0 149.4 149.4;" xml:space="preserve">
<g id="_45-Area">
	<path id="XMLID_3_" style="fill:#007BA7;" d="M143.2,31.1c3.4,0,6.2-2.8,6.2-6.2V6.2c0-3.4-2.8-6.2-6.2-6.2h-18.7
		c-3.4,0-6.2,2.8-6.2,6.2v6.2H31.1V6.2c0-3.4-2.8-6.2-6.2-6.2H6.2C2.8,0,0,2.8,0,6.2v18.7c0,3.4,2.8,6.2,6.2,6.2h6.2v87.2H6.2
		c-3.4,0-6.2,2.8-6.2,6.2v18.7c0,3.4,2.8,6.2,6.2,6.2h18.7c3.4,0,6.2-2.8,6.2-6.2V137h87.2v6.2c0,3.4,2.8,6.2,6.2,6.2h18.7
		c3.4,0,6.2-2.8,6.2-6.2v-18.7c0-3.4-2.8-6.2-6.2-6.2H137V31.1H143.2z M6.2,24.9V6.2h18.7v18.7H6.2z M24.9,143.2H6.2v-18.7h18.7
		V143.2z M118.3,124.5v6.2H31.1v-6.2c0-3.4-2.8-6.2-6.2-6.2h-6.2V31.1h6.2c3.4,0,6.2-2.8,6.2-6.2v-6.2h87.2v6.2
		c0,3.4,2.8,6.2,6.2,6.2h6.2v87.2h-6.2C121.1,118.3,118.3,121.1,118.3,124.5z M143.2,124.5v18.7h-18.7v-18.7H143.2z M124.5,24.9V6.2
		h18.7v18.7H124.5z"/>
</g>
</svg>
