<?xml version="1.0" encoding="utf-8"?>
<!-- Generator: Adobe Illustrator 19.0.0, SVG Export Plug-In . SVG Version: 6.00 Build 0)  -->
<svg version="1.1" id="Layer_1" xmlns="http://www.w3.org/2000/svg" xmlns:xlink="http://www.w3.org/1999/xlink" x="0px" y="0px"
	 viewBox="0 0 154.8 128.2" style="enable-background:new 0 0 154.8 128.2;" xml:space="preserve">
<rect x="4" y="66.1" style="fill:none;stroke:#007BA7;stroke-width:8;stroke-miterlimit:10;" width="146.8" height="56.5"/>
<line style="fill:none;stroke:#007BA7;stroke-width:8;stroke-miterlimit:10;" x1="150.8" y1="128.2" x2="150.8" y2="66.1"/>
<line style="fill:none;stroke:#007BA7;stroke-width:8;stroke-miterlimit:10;" x1="4" y1="128.2" x2="4" y2="66.1"/>
<path style="fill:none;stroke:#007BA7;stroke-width:8;stroke-miterlimit:10;" d="M133.9,4H20.9C14.7,4,9.6,9.1,9.6,15.3v39.5h11.3
	V43.5c0-3.1,2.5-5.6,5.6-5.6h39.5c3.1,0,5.6,2.5,5.6,5.6v11.3H83V43.5c0-3.1,2.5-5.6,5.6-5.6h39.5c3.1,0,5.6,2.5,5.6,5.6v11.3h11.3
	V15.3C145.2,9.1,140.1,4,133.9,4z"/>
</svg>
