<?xml version="1.0" encoding="utf-8"?>
<!-- Generator: Adobe Illustrator 19.0.0, SVG Export Plug-In . SVG Version: 6.00 Build 0)  -->
<svg version="1.1" id="Layer_1" xmlns="http://www.w3.org/2000/svg" xmlns:xlink="http://www.w3.org/1999/xlink" x="0px" y="0px"
	 viewBox="-310 265.2 100.6 100.6" style="enable-background:new -310 265.2 100.6 100.6;" xml:space="preserve">
<g id="calendar_1_">
	<path style="fill:#007BA7;" d="M-217.7,274.7h-13.6v-6.3c0-1.7-1.4-3.1-3.1-3.1c-1.7,0-3.1,1.4-3.1,3.1v6.3h-18.9v-6.3
		c0-1.7-1.4-3.1-3.1-3.1s-3.1,1.4-3.1,3.1v6.3h-18.9v-6.3c0-1.7-1.4-3.1-3.1-3.1s-3.1,1.4-3.1,3.1v6.3h-13.6c-4.6,0-8.4,3.8-8.4,8.4
		v74.4c0,4.6,3.8,8.4,8.4,8.4h83.9c4.6,0,8.4-3.8,8.4-8.4V283C-209.4,278.4-213.1,274.7-217.7,274.7z M-215.6,357.5
		c0,1.2-0.9,2.1-2.1,2.1h-83.9c-1.2,0-2.1-0.9-2.1-2.1V283c0-1.2,0.9-2.1,2.1-2.1h13.6v6.3c0,1.7,1.4,3.1,3.1,3.1s3.1-1.4,3.1-3.1
		v-6.3h18.9v6.3c0,1.7,1.4,3.1,3.1,3.1s3.1-1.4,3.1-3.1v-6.3h18.9v6.3c0,1.7,1.4,3.1,3.1,3.1c1.7,0,3.1-1.4,3.1-3.1v-6.3h13.6
		c1.2,0,2.1,0.9,2.1,2.1V357.5z"/>
	<rect x="-288" y="303" style="fill:#007BA7;" width="12.6" height="9.4"/>
	<rect x="-288" y="318.7" style="fill:#007BA7;" width="12.6" height="9.4"/>
	<rect x="-288" y="334.4" style="fill:#007BA7;" width="12.6" height="9.4"/>
	<rect x="-266" y="334.4" style="fill:#007BA7;" width="12.6" height="9.4"/>
	<rect x="-266" y="318.7" style="fill:#007BA7;" width="12.6" height="9.4"/>
	<rect x="-266" y="303" style="fill:#007BA7;" width="12.6" height="9.4"/>
	<rect x="-244" y="334.4" style="fill:#007BA7;" width="12.6" height="9.4"/>
	<rect x="-244" y="318.7" style="fill:#007BA7;" width="12.6" height="9.4"/>
	<rect x="-244" y="303" style="fill:#007BA7;" width="12.6" height="9.4"/>
</g>
</svg>
