<?xml version="1.0" encoding="utf-8"?>
<!-- Generator: Adobe Illustrator 19.0.0, SVG Export Plug-In . SVG Version: 6.00 Build 0)  -->
<svg version="1.1" id="Layer_1" xmlns="http://www.w3.org/2000/svg" xmlns:xlink="http://www.w3.org/1999/xlink" x="0px" y="0px"
	 viewBox="0 0 121.2 130.6" style="enable-background:new 0 0 121.2 130.6;" xml:space="preserve">
<g>
	<path style="fill:#007BA7;" d="M85.1,7.6c-13.5,0-24.7,3.6-33.6,10.9c-8.9,7.3-14.9,17.8-18.1,31.6H92v7.1H32.5l-0.5,9v2.1
		c0,3.8,0.2,6.3,0.5,7.6h52.4v7.1H33.2c2.3,12.6,8.1,22.3,17.2,29.4c9.1,7,20.9,10.5,35.2,10.5c11.5,0,22.7-1.9,33.5-5.6v8.2
		c-6.3,2-12.2,3.3-17.6,4c-5.4,0.7-10.9,1.1-16.4,1.1c-17.7,0-32-4-42.9-12.2C31.3,110.4,24.3,98.6,21,83.1H0v-7.1h20.1
		c-0.3-2.2-0.5-5.5-0.5-9.8l0.5-8.9H0v-7.1h21.5c3-15.7,10.2-28,21.4-36.9C54,4.4,68.1,0,85.1,0c6.8,0,13.1,0.5,18.8,1.5
		c5.7,1,11.4,2.6,17.3,4.9l-4.6,7.5C106.3,9.7,95.8,7.6,85.1,7.6z"/>
</g>
</svg>
