<?xml version="1.0" encoding="utf-8"?>
<!-- Generator: Adobe Illustrator 19.0.0, SVG Export Plug-In . SVG Version: 6.00 Build 0)  -->
<svg version="1.1" id="Layer_1" xmlns="http://www.w3.org/2000/svg" xmlns:xlink="http://www.w3.org/1999/xlink" x="0px" y="0px"
	 viewBox="-333 214.2 102.1 139.7" style="enable-background:new -333 214.2 102.1 139.7;" xml:space="preserve">
<g>
	<path style="fill:#007BA7;" d="M-265,228.2c-19.8,0-32.1,12.5-37,37.5h47.4v12h-48.7l-0.2,5.3v5.9l0.2,4.2h43v12h-41.5
		c2.3,11.2,6.6,19.8,12.9,25.9c6.3,6.1,14.7,9.2,25.2,9.2c9.7,0,19.2-2,28.7-6.1v13.9c-9,4-18.9,6-29.5,6
		c-14.7,0-26.5-4.2-35.5-12.5c-9-8.3-14.9-20.5-17.7-36.4H-333v-12h14.1l-0.2-3.9V285l0.2-7.4H-333v-12h15.2
		c2.4-16.2,8.1-28.8,17.2-37.8c9-9,20.9-13.6,35.6-13.6c12.5,0,23.8,3,34,9l-6.6,12.9C-247.8,230.8-257,228.2-265,228.2z"/>
</g>
</svg>
