<?xml version="1.0" encoding="utf-8"?>
<!-- Generator: Adobe Illustrator 19.0.0, SVG Export Plug-In . SVG Version: 6.00 Build 0)  -->
<svg version="1.1" id="Layer_1" xmlns="http://www.w3.org/2000/svg" xmlns:xlink="http://www.w3.org/1999/xlink" x="0px" y="0px"
	 viewBox="-405.1 201.3 113.1 159.2" style="enable-background:new -405.1 201.3 113.1 159.2;" xml:space="preserve">
<style type="text/css">
	.st0{fill:none;stroke:#007BA7;stroke-width:8;stroke-miterlimit:10;}
</style>
<path id="XMLID_6_" class="st0" d="M-348.4,282c-13.2,0-23.8-10.7-23.8-24c0-13.3,10.7-24,23.8-24c13,0,23.8,10.7,23.8,24
	C-324.7,271.4-335.4,282-348.4,282 M-348.4,205.3c-29.1,0-52.7,23.8-52.7,52.9c0,27.5,23.8,63.2,39.6,80.7
	c6,6.5,12.8,15.2,12.8,15.2s7.4-8.7,13.9-15.5c15.9-16.5,38.8-50,38.8-80.4C-295.9,229.1-319.5,205.3-348.4,205.3"/>
</svg>
