<?xml version="1.0" encoding="utf-8"?>
<!-- Generator: Adobe Illustrator 19.0.0, SVG Export Plug-In . SVG Version: 6.00 Build 0)  -->
<svg version="1.1" id="Layer_1" xmlns="http://www.w3.org/2000/svg" xmlns:xlink="http://www.w3.org/1999/xlink" x="0px" y="0px"
	 viewBox="-358.6 190.3 130.2 183.7" style="enable-background:new -358.6 190.3 130.2 183.7;" xml:space="preserve">
<path id="XMLID_6_" style="fill:none;stroke:#007BA7;stroke-width:5;stroke-miterlimit:10;" d="M-293.4,284.1
	c-15.7,0-28.3-12.8-28.3-28.6s12.8-28.6,28.3-28.6c15.5,0,28.3,12.8,28.3,28.6C-265.1,271.5-277.9,284.1-293.4,284.1 M-293.4,192.8
	c-34.7,0-62.7,28.3-62.7,63c0,32.8,28.3,75.3,47.2,96.1c7.2,7.7,15.2,18.1,15.2,18.1s8.8-10.4,16.5-18.4
	c18.9-19.7,46.2-59.5,46.2-95.8C-230.9,221.1-259,192.8-293.4,192.8"/>
</svg>
