<?xml version="1.0" encoding="utf-8"?>
<!-- Generator: Adobe Illustrator 19.0.0, SVG Export Plug-In . SVG Version: 6.00 Build 0)  -->
<svg version="1.1" id="Layer_1" xmlns="http://www.w3.org/2000/svg" xmlns:xlink="http://www.w3.org/1999/xlink" x="0px" y="0px"
	 viewBox="0 0 49.9 70.3" style="enable-background:new 0 0 49.9 70.3;" xml:space="preserve">
<path id="XMLID_6_" style="fill:#007BA7;stroke:#007BA7;stroke-width:3;stroke-miterlimit:10;" d="M25,35.7
	c-5.9,0-10.6-4.8-10.6-10.7c0-5.9,4.8-10.7,10.6-10.7s10.6,4.8,10.6,10.7C35.6,31,30.8,35.7,25,35.7 M25,1.5
	C12,1.5,1.5,12.1,1.5,25.1c0,12.3,10.6,28.2,17.7,36c2.7,2.9,5.7,6.8,5.7,6.8s3.3-3.9,6.2-6.9c7.1-7.4,17.3-22.3,17.3-35.9
	C48.4,12.1,37.9,1.5,25,1.5"/>
</svg>
