<?xml version="1.0" encoding="utf-8"?>
<!-- Generator: Adobe Illustrator 19.0.0, SVG Export Plug-In . SVG Version: 6.00 Build 0)  -->
<svg version="1.1" id="Layer_1" xmlns="http://www.w3.org/2000/svg" xmlns:xlink="http://www.w3.org/1999/xlink" x="0px" y="0px"
	 viewBox="0 0 518.3 122.6" style="enable-background:new 0 0 518.3 122.6;" xml:space="preserve">
<line id="XMLID_88_" style="fill:#FFFFFF;stroke:#3A3A3A;stroke-width:5;stroke-miterlimit:10;" x1="16.3" y1="3.7" x2="307.3" y2="3.7"/>
<g id="XMLID_1_">
	<path id="XMLID_2_" style="fill:#FFFFFF;" d="M18.5,18.8h35v12H31.7v23.5h17.1v12H31.7V103H18.5V18.8z"/>
	<path id="XMLID_4_" style="fill:#FFFFFF;" d="M59.8,18.8h13.2V103H59.8V18.8z"/>
	<path id="XMLID_6_" style="fill:#FFFFFF;" d="M82.9,18.8h16.6l12.9,50.4h0.2V18.8h11.8V103h-13.6L95,41.6h-0.2V103H82.9V18.8z"/>
	<path id="XMLID_8_" style="fill:#FFFFFF;" d="M134.3,18.8h20.2c6.6,0,11.5,1.8,14.8,5.3c3.3,3.5,4.9,8.7,4.9,15.5v42.6
		c0,6.8-1.6,12-4.9,15.5c-3.3,3.5-8.2,5.3-14.8,5.3h-20.2V18.8z M154.3,91c2.2,0,3.8-0.6,5-1.9c1.2-1.3,1.7-3.4,1.7-6.3V39
		c0-2.9-0.6-5-1.7-6.3c-1.2-1.3-2.8-1.9-5-1.9h-6.7V91H154.3z"/>
	<path id="XMLID_11_" style="fill:#FFFFFF;" d="M183.1,18.8h13.2V103h-13.2V18.8z"/>
	<path id="XMLID_13_" style="fill:#FFFFFF;" d="M206.2,18.8h18.9l8.4,60.3h0.2l8.4-60.3h18.9V103h-12.5V39.3h-0.2l-9.6,63.8h-11.1
		L218,39.3h-0.2V103h-11.5V18.8z"/>
	<path id="XMLID_15_" style="fill:#FFFFFF;" d="M275.2,98.7c-3.4-3.7-5.2-8.9-5.2-15.6V38.8c0-6.7,1.7-11.9,5.2-15.6
		c3.4-3.7,8.4-5.5,14.9-5.5c6.5,0,11.5,1.8,14.9,5.5c3.4,3.7,5.2,8.9,5.2,15.6v44.3c0,6.7-1.7,12-5.2,15.6
		c-3.4,3.7-8.4,5.5-14.9,5.5C283.6,104.2,278.6,102.4,275.2,98.7z M296.9,83.9V38c0-5.5-2.3-8.3-6.9-8.3c-4.6,0-6.9,2.8-6.9,8.3v46
		c0,5.5,2.3,8.3,6.9,8.3C294.6,92.2,296.9,89.4,296.9,83.9z"/>
</g>
<rect id="XMLID_76_" x="3.3" y="3.3" style="fill:none;stroke:#FFFFFF;stroke-width:6.6954;stroke-miterlimit:10;" width="511.6" height="116"/>
<line id="XMLID_78_" style="fill:none;stroke:#FFFFFF;stroke-width:7;stroke-miterlimit:10;" x1="514.3" y1="27.7" x2="330.3" y2="27.7"/>
<line id="XMLID_74_" style="fill:none;stroke:#FFFFFF;stroke-width:7;stroke-miterlimit:10;" x1="514.3" y1="50.7" x2="330.3" y2="50.7"/>
<line id="XMLID_80_" style="fill:none;stroke:#FFFFFF;stroke-width:7;stroke-miterlimit:10;" x1="515.3" y1="73.7" x2="331.3" y2="73.7"/>
<line id="XMLID_79_" style="fill:none;stroke:#FFFFFF;stroke-width:7;stroke-miterlimit:10;" x1="515.3" y1="96.7" x2="331.3" y2="96.7"/>
</svg>
