<?xml version="1.0" encoding="utf-8"?>
<!-- Generator: Adobe Illustrator 19.0.0, SVG Export Plug-In . SVG Version: 6.00 Build 0)  -->
<svg version="1.1" id="Layer_1" xmlns="http://www.w3.org/2000/svg" xmlns:xlink="http://www.w3.org/1999/xlink" x="0px" y="0px"
	 viewBox="-220 219.4 518.3 122.6" style="enable-background:new -220 219.4 518.3 122.6;" xml:space="preserve">
<style type="text/css">
	.st0{fill:none;stroke:#3A3A3A;stroke-width:5;stroke-miterlimit:10;}
	.st1{fill:#FFFFFF;}
	.st2{fill:none;stroke:#ffffff;stroke-width:7;stroke-miterlimit:10;}
</style>
<line id="XMLID_88_" class="st0" x1="-203.7" y1="223.1" x2="87.3" y2="223.1"/>
<g id="XMLID_1_">
	<path id="XMLID_2_" class="st1" d="M-201.5,238.2h35v12h-21.8v23.5h17.1v12h-17.1v36.7h-13.2V238.2z"/>
	<path id="XMLID_4_" class="st1" d="M-160.2,238.2h13.2v84.2h-13.2V238.2z"/>
	<path id="XMLID_6_" class="st1" d="M-137.1,238.2h16.6l12.9,50.4h0.2v-50.4h11.8v84.2h-13.6L-125,261h-0.2v61.4h-11.9V238.2z"/>
	<path id="XMLID_8_" class="st1" d="M-85.7,238.2h20.2c6.6,0,11.5,1.8,14.8,5.3s4.9,8.7,4.9,15.5v42.6c0,6.8-1.6,12-4.9,15.5
		c-3.3,3.5-8.2,5.3-14.8,5.3h-20.2V238.2z M-65.7,310.4c2.2,0,3.8-0.6,5-1.9c1.2-1.3,1.7-3.4,1.7-6.3v-43.8c0-2.9-0.6-5-1.7-6.3
		c-1.2-1.3-2.8-1.9-5-1.9h-6.7v60.2H-65.7z"/>
	<path id="XMLID_11_" class="st1" d="M-36.9,238.2h13.2v84.2h-13.2V238.2z"/>
	<path id="XMLID_13_" class="st1" d="M-13.8,238.2H5.1l8.4,60.3h0.2l8.4-60.3H41v84.2H28.5v-63.7h-0.2l-9.6,63.8H7.6L-2,258.7h-0.2
		v63.7h-11.5v-84.2H-13.8z"/>
	<path id="XMLID_15_" class="st1" d="M55.2,318.1c-3.4-3.7-5.2-8.9-5.2-15.6v-44.3c0-6.7,1.7-11.9,5.2-15.6
		c3.4-3.7,8.4-5.5,14.9-5.5s11.5,1.8,14.9,5.5s5.2,8.9,5.2,15.6v44.3c0,6.7-1.7,12-5.2,15.6c-3.4,3.7-8.4,5.5-14.9,5.5
		S58.6,321.8,55.2,318.1z M76.9,303.3v-45.9c0-5.5-2.3-8.3-6.9-8.3s-6.9,2.8-6.9,8.3v46c0,5.5,2.3,8.3,6.9,8.3
		C74.6,311.6,76.9,308.8,76.9,303.3z"/>
</g>
<line id="XMLID_78_" class="st2" x1="294.3" y1="247.1" x2="110.3" y2="247.1"/>
<line id="XMLID_74_" class="st2" x1="294.3" y1="270.1" x2="110.3" y2="270.1"/>
<line id="XMLID_80_" class="st2" x1="295.3" y1="293.1" x2="111.3" y2="293.1"/>
<line id="XMLID_79_" class="st2" x1="295.3" y1="316.1" x2="111.3" y2="316.1"/>
<rect id="XMLID_76_" x="-216.7" y="222.7" class="st2" width="511.6" height="116"/>
</svg>
