<?xml version="1.0" encoding="utf-8"?>
<!-- Generator: Adobe Illustrator 19.0.0, SVG Export Plug-In . SVG Version: 6.00 Build 0)  -->
<svg version="1.1" id="Layer_1" xmlns="http://www.w3.org/2000/svg" xmlns:xlink="http://www.w3.org/1999/xlink" x="0px" y="0px"
	 viewBox="0 0 184.8 120.5" style="enable-background:new 0 0 184.8 120.5;" xml:space="preserve">
<line id="XMLID_70_" style="fill:#FFFFFF;stroke:#FFFFFF;stroke-width:3;stroke-miterlimit:10;" x1="26.5" y1="36" x2="26.5" y2="54"/>
<line id="XMLID_69_" style="fill:#FFFFFF;stroke:#FFFFFF;stroke-width:3;stroke-miterlimit:10;" x1="37.5" y1="26" x2="37.5" y2="54"/>
<line id="XMLID_68_" style="fill:#FFFFFF;stroke:#FFFFFF;stroke-width:3;stroke-miterlimit:10;" x1="46.5" y1="10" x2="46.5" y2="53"/>
<line id="XMLID_67_" style="fill:#FFFFFF;stroke:#FFFFFF;stroke-width:3;stroke-miterlimit:10;" x1="86.5" y1="34" x2="86.5" y2="52"/>
<line id="XMLID_66_" style="fill:#FFFFFF;stroke:#3A3A3A;stroke-width:3;stroke-miterlimit:10;" x1="9" y1="53.5" x2="173" y2="53.5"/>
<line id="XMLID_65_" style="fill:#FFFFFF;stroke:#FFFFFF;stroke-width:3;stroke-miterlimit:10;" x1="56.5" y1="1" x2="56.5" y2="53"/>
<line id="XMLID_64_" style="fill:#FFFFFF;stroke:#FFFFFF;stroke-width:3;stroke-miterlimit:10;" x1="67.5" y1="14" x2="67.5" y2="53"/>
<line id="XMLID_63_" style="fill:#FFFFFF;stroke:#FFFFFF;stroke-width:3;stroke-miterlimit:10;" x1="77.5" y1="9" x2="77.5" y2="52"/>
<line id="XMLID_62_" style="fill:#FFFFFF;stroke:#FFFFFF;stroke-width:3;stroke-miterlimit:10;" x1="96.5" y1="35" x2="96.5" y2="53"/>
<line id="XMLID_61_" style="fill:#FFFFFF;stroke:#FFFFFF;stroke-width:3;stroke-miterlimit:10;" x1="107.5" y1="25" x2="107.5" y2="53"/>
<line id="XMLID_60_" style="fill:#FFFFFF;stroke:#FFFFFF;stroke-width:3;stroke-miterlimit:10;" x1="116.5" y1="9" x2="116.5" y2="52"/>
<line id="XMLID_59_" style="fill:#FFFFFF;stroke:#FFFFFF;stroke-width:3;stroke-miterlimit:10;" x1="156.5" y1="33" x2="156.5" y2="53"/>
<line id="XMLID_58_" style="fill:#FFFFFF;stroke:#FFFFFF;stroke-width:3;stroke-miterlimit:10;" x1="126.5" y1="0" x2="126.5" y2="52"/>
<line id="XMLID_57_" style="fill:#FFFFFF;stroke:#FFFFFF;stroke-width:3;stroke-miterlimit:10;" x1="137.5" y1="13" x2="137.5" y2="52"/>
<line id="XMLID_56_" style="fill:#FFFFFF;stroke:#FFFFFF;stroke-width:3;stroke-miterlimit:10;" x1="147.5" y1="8" x2="147.5" y2="53"/>
<g id="XMLID_36_">
	<path id="XMLID_72_" style="fill:#FFFFFF;" d="M10,62.2h19.8V69H17.5v13.3h9.6v6.8h-9.6v20.7H10V62.2z"/>
	<path id="XMLID_76_" style="fill:#FFFFFF;" d="M33.4,62.2h7.5v47.6h-7.5V62.2z"/>
	<path id="XMLID_78_" style="fill:#FFFFFF;" d="M46.5,62.2h9.4l7.3,28.5h0.1V62.2h6.7v47.6h-7.7l-9-34.7h-0.1v34.7h-6.7V62.2z"/>
	<path id="XMLID_80_" style="fill:#FFFFFF;" d="M75.5,62.2h11.4c3.7,0,6.5,1,8.4,3c1.9,2,2.8,4.9,2.8,8.8v24.1
		c0,3.9-0.9,6.8-2.8,8.8c-1.9,2-4.6,3-8.4,3H75.5V62.2z M86.8,103c1.2,0,2.2-0.4,2.8-1.1c0.7-0.7,1-1.9,1-3.5V73.7
		c0-1.6-0.3-2.8-1-3.5C88.9,69.4,88,69,86.8,69h-3.8v34H86.8z"/>
	<path id="XMLID_83_" style="fill:#FFFFFF;" d="M103.1,62.2h7.5v47.6h-7.5V62.2z"/>
	<path id="XMLID_85_" style="fill:#FFFFFF;" d="M116.1,62.2h10.7l4.8,34h0.1l4.8-34h10.7v47.6H140v-36h-0.1l-5.4,36h-6.3l-5.4-36
		h-0.1v36h-6.5V62.2z"/>
	<path id="XMLID_87_" style="fill:#FFFFFF;" d="M155,107.4c-1.9-2.1-2.9-5-2.9-8.8v-25c0-3.8,1-6.7,2.9-8.8c1.9-2.1,4.8-3.1,8.4-3.1
		s6.5,1,8.4,3.1c1.9,2.1,2.9,5,2.9,8.8v25c0,3.8-1,6.8-2.9,8.8c-1.9,2.1-4.8,3.1-8.4,3.1S157,109.4,155,107.4z M167.3,99V73
		c0-3.1-1.3-4.7-3.9-4.7s-3.9,1.6-3.9,4.7v26c0,3.1,1.3,4.7,3.9,4.7S167.3,102.1,167.3,99z"/>
</g>
<path id="XMLID_54_" style="fill:none;stroke:#FFFFFF;stroke-width:3;stroke-miterlimit:10;" d="M183.3,119H1.5V64.3
	c0-5.9,4.8-10.8,10.8-10.8h160.3c5.9,0,10.8,4.8,10.8,10.8V119z"/>
</svg>
