<?xml version="1.0" encoding="utf-8"?>
<!-- Generator: Adobe Illustrator 19.0.0, SVG Export Plug-In . SVG Version: 6.00 Build 0)  -->
<svg version="1.1" id="Layer_1" xmlns="http://www.w3.org/2000/svg" xmlns:xlink="http://www.w3.org/1999/xlink" x="0px" y="0px"
	 viewBox="0 0 88 87.9" style="enable-background:new 0 0 88 87.9;" xml:space="preserve">
<g id="Page-1">
	<g id="icon-111-search">
		<path id="search" style="fill:#007BA7;stroke:#007BA7;stroke-width:3;stroke-miterlimit:10;" d="M54.7,62.7
			c-5.5,3.9-12.3,6.2-19.5,6.2c-18.6,0-33.7-15.1-33.7-33.7S16.6,1.5,35.2,1.5s33.7,15.1,33.7,33.7c0,7.3-2.3,14-6.2,19.5l22.1,22.1
			c2.2,2.2,2.2,5.7,0,7.8l-0.1,0.1c-2.2,2.2-5.7,2.2-7.8,0L54.7,62.7L54.7,62.7z M35.2,61C49.4,61,61,49.4,61,35.2
			S49.4,9.4,35.2,9.4S9.4,21,9.4,35.2S21,61,35.2,61L35.2,61z"/>
	</g>
</g>
</svg>
