<?xml version="1.0" encoding="utf-8"?>
<!-- Generator: Adobe Illustrator 19.0.0, SVG Export Plug-In . SVG Version: 6.00 Build 0)  -->
<svg version="1.1" id="Layer_1" xmlns="http://www.w3.org/2000/svg" xmlns:xlink="http://www.w3.org/1999/xlink" x="0px" y="0px"
	 viewBox="0 0 135.9 148.8" style="enable-background:new 0 0 135.9 148.8;" xml:space="preserve">
<path style="fill:#007BA7;" d="M134.6,73.7l-73.7,73.7c-0.1,0.2-0.2,0.3-0.3,0.5c-0.6,0.6-1.5,0.9-2.3,0.9c-0.8,0-1.7-0.3-2.3-0.9
	c-0.1-0.1-0.2-0.3-0.3-0.5L1.4,93.2C1.2,93.1,1,93,0.9,92.9C0.3,92.3,0,91.4,0,90.6c0-0.8,0.3-1.7,0.9-2.3C1,88.1,1.2,88.1,1.4,88
	l73.7-73.7c0.6-0.8,1.5-1.3,2.5-1.3h0.1c0,0,0,0,0,0h13c0.4-4.9,2.4-9.1,5.4-11.9l0.1,0.1C96.8,0.4,97.7,0,98.7,0
	c1.9,0,3.5,1.7,3.5,3.7c0,1.2-0.6,2.2-1.4,2.9c-1.5,1.4-2.7,3.7-3,6.3h15.4c0,0,0,0,0,0h0.1c1,0,1.9,0.5,2.5,1.3l18.9,18.9
	c0.8,0.6,1.3,1.5,1.3,2.5v0.1c0,0,0,0,0,0v35.4c0,0,0,0,0,0v0.1C135.9,72.2,135.3,73.1,134.6,73.7z M101.1,50.7
	c-0.6,0.7-1.5,1.1-2.5,1.1c-1.9,0-3.5-1.7-3.5-3.7c0-1.2,0.6-2.2,1.4-2.9c0.8-0.7,1.5-1.7,2-2.9c-2.8,0.7-4.8,3.2-4.8,6.2
	c0,3.6,2.9,6.5,6.5,6.5c3.6,0,6.5-2.9,6.5-6.5c0-1.5-0.5-2.9-1.4-4C103.3,49.5,101.1,50.7,101.1,50.7z M129.4,36.8L112,19.4H98.4
	c0.6,1.4,1.4,2.7,2.3,3.6l0,0c0.1,0.1,0.3,0.2,0.4,0.3l0.1-0.1c3.4,3.1,5.6,8.1,5.6,13.8c0,0.1,0,0.3,0,0.4
	c3.9,2.2,6.5,6.4,6.5,11.2c0,7.1-5.8,12.9-12.9,12.9s-12.9-5.8-12.9-12.9c0-6.9,5.5-12.6,12.4-12.9c-0.3-2.9-1.4-5.3-3.1-6.9
	c-0.1-0.1-0.3-0.2-0.4-0.3l-0.1,0.1c-2.4-2.2-4.2-5.5-5-9.1H78.9L7.7,90.6l50.5,50.5l71.2-71.2C129.4,69.9,129.4,36.8,129.4,36.8z
	 M36.5,85c1.2-1.2,3.2-1.2,4.5,0l22.8,22.8c1.2,1.2,1.2,3.2,0,4.5c-1.2,1.2-3.2,1.2-4.5,0L36.5,89.5C35.3,88.3,35.3,86.3,36.5,85z
	 M49.4,72.1c1.2-1.2,3.2-1.2,4.5,0l22.8,22.8c1.2,1.2,1.2,3.2,0,4.5c-1.2,1.2-3.2,1.2-4.5,0L49.4,76.6
	C48.2,75.3,48.2,73.3,49.4,72.1z"/>
</svg>
