<?xml version="1.0" encoding="utf-8"?>
<!-- Generator: Adobe Illustrator 19.0.0, SVG Export Plug-In . SVG Version: 6.00 Build 0)  -->
<svg version="1.1"
	 id="svg2" xmlns:cc="http://creativecommons.org/ns#" xmlns:inkscape="http://www.inkscape.org/namespaces/inkscape" xmlns:rdf="http://www.w3.org/1999/02/22-rdf-syntax-ns#" xmlns:svg="http://www.w3.org/2000/svg" xmlns:sodipodi="http://sodipodi.sourceforge.net/DTD/sodipodi-0.dtd" xmlns:dc="http://purl.org/dc/elements/1.1/" sodipodi:docname="htmlcss.svg" inkscape:version="0.48.3.1 r9886"
	 xmlns="http://www.w3.org/2000/svg" xmlns:xlink="http://www.w3.org/1999/xlink" x="0px" y="0px"
	 viewBox="-1238.7 -63.4 1052.1 1193" style="enable-background:new -1238.7 -63.4 1052.1 1193;" xml:space="preserve">
<sodipodi:namedview  fit-margin-left="0" id="base" showgrid="false" inkscape:zoom="0.35" inkscape:cx="-276.49014" borderopacity="1.0" fit-margin-top="0" bordercolor="#666666" pagecolor="#ffffff" inkscape:cy="244.10462" inkscape:current-layer="layer1" inkscape:document-units="px" inkscape:window-maximized="1" inkscape:window-y="31" fit-margin-bottom="0" inkscape:window-x="0" fit-margin-right="0" inkscape:pageopacity="0.0" inkscape:pageshadow="2" inkscape:window-height="938" inkscape:window-width="1280">
	</sodipodi:namedview>
<g id="layer1" transform="translate(-170.06157,-270.18109)" inkscape:label="Calque 1" inkscape:groupmode="layer">
	<g id="g3013" transform="translate(95.428571,270.18109)">
		<polygon id="polygon2989" style="fill:#264DE4;" points="-638.6,1129.6 -1068.3,1010.4 -1164,-63.4 -112,-63.4 -208,1010.1 		"/>
		<polygon id="polygon2991" style="fill:#2965F1;" points="-290,942 -208,24.5 -638,24.5 -638,1038.3 		"/>
		<polygon id="polygon2993" style="fill:#EBEBEB;" points="-944.5,422.6 -932.6,554.3 -638,554.3 -638,422.6 		"/>
		<polygon id="polygon2995" style="fill:#EBEBEB;" points="-968.3,156.1 -956.1,287.8 -638,287.8 -638,156.1 -638.6,156.1 		"/>
		<polygon id="polygon2997" style="fill:#EBEBEB;" points="-638,764.8 -638.6,764.8 -785.3,725.4 -794.6,620.4 -865.9,620.4 
			-926.8,620.4 -908.3,827.1 -638.6,902 -638,901.7 		"/>
		<polygon id="polygon3005" style="fill:#FFFFFF;" points="-332.4,422.6 -308.6,156.1 -638.6,156.1 -638.6,287.8 -453,287.8 
			-464.9,422.6 -638.6,422.6 -638.6,554.3 -476.2,554.3 -491.6,725.1 -638.6,764.8 -638.6,902 -368.6,827.1 -366.6,804.8 
			-335.5,458 		"/>
	</g>
</g>
</svg>
