<?xml version="1.0" encoding="utf-8"?>
<!-- Generator: Adobe Illustrator 19.0.0, SVG Export Plug-In . SVG Version: 6.00 Build 0)  -->
<svg version="1.1" id="Layer_1" xmlns="http://www.w3.org/2000/svg" xmlns:xlink="http://www.w3.org/1999/xlink" x="0px" y="0px"
	 viewBox="0 0 586.7 266" style="enable-background:new 0 0 586.7 266;" xml:space="preserve">
<polyline id="XMLID_16_" style="fill:none;stroke:#FFFFFF;stroke-width:2;stroke-miterlimit:10;" points="80.5,168 73.4,110.3 
	80.4,109.4 87.6,168 "/>
<path id="XMLID_51_" style="fill:none;stroke:#FFFFFF;stroke-width:2;stroke-miterlimit:10;" d="M72.7,146.5l-3.6-29.2
	c-0.3-2.7,1.6-5.2,4.3-5.5h0"/>
<path id="XMLID_45_" style="fill:none;stroke:#FFFFFF;stroke-width:2;stroke-miterlimit:10;" d="M86.9,149.1l-10.2,1.3l-5.2-42.4
	c-0.2-1.9,1.1-3.6,3-3.8l3.4-0.4c1.9-0.2,3.6,1.1,3.8,3L86.9,149.1z"/>
<path id="XMLID_14_" style="fill:none;stroke:#FFFFFF;stroke-width:2;stroke-miterlimit:10;" d="M300.5,194.3
	c0,30.5-79.2,21.1-107.4,41.8"/>
<path id="XMLID_2_" style="fill:none;stroke:#FFFFFF;stroke-width:2;stroke-miterlimit:10;" d="M488.7,194h31V1H227.2
	c-0.3,0-0.5,0.2-0.5,0.5v192c0,0.3,0.2,0.5,0.5,0.5h137.5v26h-53.2c-2.5,0-4.6,2-4.6,4.6V236h133v-11.4c0-2.5-2-4.6-4.6-4.6h-53.7
	v-26h44"/>
<polyline id="XMLID_12_" style="fill:none;stroke:#FFFFFF;stroke-width:2;stroke-miterlimit:10;" points="426.1,177.8 241.7,177.8 
	241.7,17 505.2,17 505.2,177.8 489,177.8 "/>
<circle id="XMLID_3_" style="fill:none;stroke:#FFFFFF;stroke-width:2;stroke-miterlimit:10;" cx="273.7" cy="73.9" r="12.8"/>
<path id="XMLID_4_" style="fill:none;stroke:#FFFFFF;stroke-width:2;stroke-miterlimit:10;" d="M439.4,39.3h-132
	c-3.1,0-5.6-2.5-5.6-5.6v-0.3c0-3.1,2.5-5.6,5.6-5.6h132c3.1,0,5.6,2.5,5.6,5.6v0.3C445,36.7,442.5,39.3,439.4,39.3z"/>
<rect id="XMLID_5_" x="300.5" y="67.9" style="fill:none;stroke:#FFFFFF;stroke-miterlimit:10;" width="47.4" height="11.5"/>
<rect id="XMLID_6_" x="300.5" y="86.8" style="fill:none;stroke:#FFFFFF;stroke-miterlimit:10;" width="73" height="11.5"/>
<rect id="XMLID_34_" x="300.5" y="106.5" style="fill:none;stroke:#FFFFFF;stroke-miterlimit:10;" width="59.7" height="11.5"/>
<rect id="XMLID_35_" x="360.2" y="67.9" style="fill:none;stroke:#FFFFFF;stroke-miterlimit:10;" width="34.5" height="11.5"/>
<path id="XMLID_7_" style="fill:none;stroke:#FFFFFF;stroke-width:2;stroke-miterlimit:10;" d="M480.1,208h-45c-4.9,0-9-4-9-9v-89.4
	c0-4.9,4-9,9-9h45c4.9,0,9,4,9,9V199C489,204,485,208,480.1,208z"/>
<line id="XMLID_9_" style="fill:none;stroke:#FFFFFF;stroke-width:2;stroke-miterlimit:10;" x1="426.7" y1="192" x2="488.7" y2="192"/>
<circle id="XMLID_11_" style="fill:none;stroke:#FFFFFF;stroke-width:2;stroke-miterlimit:10;" cx="457.9" cy="200" r="2.9"/>
<line id="XMLID_8_" style="fill:none;stroke:#FFFFFF;stroke-miterlimit:10;" x1="467.7" y1="200.5" x2="482.7" y2="200.5"/>
<line id="XMLID_10_" style="fill:none;stroke:#FFFFFF;stroke-miterlimit:10;" x1="433.7" y1="200.5" x2="448.7" y2="200.5"/>
<line id="XMLID_26_" style="fill:none;stroke:#FFFFFF;stroke-width:2;stroke-miterlimit:10;" x1="441.7" y1="167" x2="465.7" y2="167"/>
<line id="XMLID_27_" style="fill:none;stroke:#FFFFFF;stroke-width:2;stroke-miterlimit:10;" x1="441.7" y1="174" x2="474.7" y2="174"/>
<line id="XMLID_28_" style="fill:none;stroke:#FFFFFF;stroke-width:2;stroke-miterlimit:10;" x1="441.7" y1="179" x2="453.7" y2="179"/>
<circle id="XMLID_25_" style="fill:none;stroke:#FFFFFF;stroke-width:2;stroke-miterlimit:10;" cx="457.9" cy="138" r="14.3"/>
<line id="XMLID_29_" style="fill:none;stroke:#FFFFFF;stroke-width:2;stroke-miterlimit:10;" x1="468.7" y1="167" x2="474.7" y2="167"/>
<line id="XMLID_30_" style="fill:none;stroke:#FFFFFF;stroke-width:2;stroke-miterlimit:10;" x1="457.7" y1="179" x2="461.7" y2="179"/>
<line id="XMLID_31_" style="fill:none;stroke:#FFFFFF;stroke-width:2;stroke-miterlimit:10;" x1="426.7" y1="109" x2="488.7" y2="109"/>
<line id="XMLID_32_" style="fill:none;stroke:#FFFFFF;stroke-width:2;stroke-miterlimit:10;" x1="454.7" y1="105" x2="464.7" y2="105"/>
<line id="XMLID_33_" style="fill:none;stroke:#FFFFFF;stroke-width:2;stroke-miterlimit:10;" x1="451.7" y1="105" x2="453.7" y2="105"/>
<path id="XMLID_38_" style="fill:none;stroke:#FFFFFF;stroke-width:2;stroke-miterlimit:10;" d="M571.2,265H15.5
	c-8,0-14.5-6.5-14.5-14.5v0c0-8,6.5-14.5,14.5-14.5h555.7c8,0,14.5,6.5,14.5,14.5v0C585.7,258.5,579.2,265,571.2,265z"/>
<circle id="XMLID_43_" style="fill:none;stroke:#FFFFFF;stroke-miterlimit:10;" cx="373.5" cy="187.5" r="3.7"/>
<line id="XMLID_18_" style="fill:none;stroke:#FFFFFF;stroke-width:2;stroke-miterlimit:10;" x1="59.7" y1="168" x2="48.7" y2="140.9"/>
<line id="XMLID_15_" style="fill:none;stroke:#FFFFFF;stroke-width:2;stroke-miterlimit:10;" x1="58.5" y1="136.9" x2="70.9" y2="168"/>
<polygon id="XMLID_47_" style="fill:none;stroke:#FFFFFF;stroke-width:2;stroke-miterlimit:10;" points="53.9,139 51.6,141.2 
	48.7,140.9 47.3,123.1 58.6,137 57.2,139 "/>
<line id="XMLID_48_" style="fill:none;stroke:#FFFFFF;stroke-miterlimit:10;" x1="47.6" y1="127.4" x2="50.1" y2="126.4"/>
<line id="XMLID_50_" style="fill:none;stroke:#FFFFFF;stroke-miterlimit:10;" x1="53.9" y1="139" x2="65.3" y2="168"/>
<polyline id="XMLID_17_" style="fill:none;stroke:#FFFFFF;stroke-width:2;stroke-miterlimit:10;" points="120.3,214 120.3,236 
	59.7,236 59.7,168 120.3,168 120.3,206.6 "/>
<g id="XMLID_62_">
	<path id="XMLID_59_" style="fill:none;stroke:#FFFFFF;stroke-width:2;stroke-miterlimit:10;" d="M80.7,181c0,20,7.8,33,7.8,33h35.2
		c0,0-7.8-13-7.8-33H80.7z"/>
	
		<line id="XMLID_60_" style="fill:none;stroke:#FFFFFF;stroke-width:2;stroke-miterlimit:10;" x1="88.7" y1="190" x2="110.7" y2="190"/>
	
		<line id="XMLID_61_" style="fill:none;stroke:#FFFFFF;stroke-width:2;stroke-miterlimit:10;" x1="90.7" y1="198" x2="111.7" y2="198"/>
	
		<line id="XMLID_58_" style="fill:none;stroke:#FFFFFF;stroke-width:2;stroke-miterlimit:10;" x1="93.7" y1="206" x2="113.7" y2="206"/>
</g>
<path id="XMLID_20_" style="fill:none;stroke:#FFFFFF;stroke-width:2;stroke-miterlimit:10;" d="M157.3,215.9L157.3,215.9
	c0-2.2,1.8-3.9,3.9-3.9l0,0c2.2,0,3.9,1.8,3.9,3.9l0,0"/>
<path id="XMLID_52_" style="fill:none;stroke:#FFFFFF;stroke-width:2;stroke-miterlimit:10;" d="M158,215.9h6.6
	c7.2,0,13.1,5.9,13.1,13.1v0h-32.8v0C144.9,221.8,150.8,215.9,158,215.9z"/>
<path id="XMLID_53_" style="fill:none;stroke:#FFFFFF;stroke-width:2;stroke-miterlimit:10;" d="M144.9,229h32.8v0
	c0,3.2-2.6,5.8-5.8,5.8h-21.2C147.5,234.8,144.9,232.2,144.9,229L144.9,229z"/>
<path id="XMLID_13_" style="fill:none;stroke:#FFFFFF;stroke-width:2;stroke-miterlimit:10;" d="M193.1,236"/>
</svg>
