<?xml version="1.0" encoding="utf-8"?>
<!-- Generator: Adobe Illustrator 19.0.0, SVG Export Plug-In . SVG Version: 6.00 Build 0)  -->
<svg version="1.1" id="Layer_1" xmlns="http://www.w3.org/2000/svg" xmlns:xlink="http://www.w3.org/1999/xlink" x="0px" y="0px"
	 viewBox="0 0 661 468.3" style="enable-background:new 0 0 661 468.3;" xml:space="preserve">
<g id="XMLID_1_">
	<polyline id="XMLID_16_" style="fill:none;stroke:#D93F46;stroke-width:2;stroke-miterlimit:10;" points="80.5,370.3 73.4,312.6 
		80.4,311.7 87.6,370.3 	"/>
	<path id="XMLID_51_" style="fill:none;stroke:#D93F46;stroke-width:2;stroke-miterlimit:10;" d="M72.7,348.8l-3.6-29.2
		c-0.3-2.7,1.6-5.2,4.3-5.5l0,0"/>
	<path id="XMLID_45_" style="fill:none;stroke:#D93F46;stroke-width:2;stroke-miterlimit:10;" d="M86.9,351.4l-10.2,1.3l-5.2-42.4
		c-0.2-1.9,1.1-3.6,3-3.8l3.4-0.4c1.9-0.2,3.6,1.1,3.8,3L86.9,351.4z"/>
	<path id="XMLID_14_" style="fill:none;stroke:#D93F46;stroke-width:2;stroke-miterlimit:10;" d="M300.5,396.6
		c0,30.5-79.2,21.1-107.4,41.8"/>
	<path id="XMLID_2_" style="fill:none;stroke:#D93F46;stroke-width:2;stroke-miterlimit:10;" d="M488.7,396.3h31v-193H227.2
		c-0.3,0-0.5,0.2-0.5,0.5v192c0,0.3,0.2,0.5,0.5,0.5h137.5v26h-53.2c-2.5,0-4.6,2-4.6,4.6v11.4h133v-11.4c0-2.5-2-4.6-4.6-4.6h-53.7
		v-26h44"/>
	<polyline id="XMLID_12_" style="fill:none;stroke:#D93F46;stroke-width:2;stroke-miterlimit:10;" points="426.1,380.1 241.7,380.1 
		241.7,219.3 505.2,219.3 505.2,380.1 489,380.1 	"/>
	<circle id="XMLID_3_" style="fill:none;stroke:#D93F46;stroke-width:2;stroke-miterlimit:10;" cx="273.7" cy="276.2" r="12.8"/>
	<path id="XMLID_4_" style="fill:none;stroke:#D93F46;stroke-width:2;stroke-miterlimit:10;" d="M439.4,241.6h-132
		c-3.1,0-5.6-2.5-5.6-5.6v-0.3c0-3.1,2.5-5.6,5.6-5.6h132c3.1,0,5.6,2.5,5.6,5.6v0.3C445,239,442.5,241.6,439.4,241.6z"/>
	<rect id="XMLID_5_" x="300.5" y="270.2" style="fill:none;stroke:#D93F46;stroke-miterlimit:10;" width="47.4" height="11.5"/>
	<rect id="XMLID_6_" x="300.5" y="289.1" style="fill:none;stroke:#D93F46;stroke-miterlimit:10;" width="73" height="11.5"/>
	<rect id="XMLID_34_" x="300.5" y="308.8" style="fill:none;stroke:#D93F46;stroke-miterlimit:10;" width="59.7" height="11.5"/>
	<rect id="XMLID_35_" x="360.2" y="270.2" style="fill:none;stroke:#D93F46;stroke-miterlimit:10;" width="34.5" height="11.5"/>
	<path id="XMLID_7_" style="fill:none;stroke:#D93F46;stroke-width:2;stroke-miterlimit:10;" d="M480.1,410.3h-45c-4.9,0-9-4-9-9
		v-89.4c0-4.9,4-9,9-9h45c4.9,0,9,4,9,9v89.4C489,406.3,485,410.3,480.1,410.3z"/>
	
		<line id="XMLID_9_" style="fill:none;stroke:#D93F46;stroke-width:2;stroke-miterlimit:10;" x1="426.7" y1="394.3" x2="488.7" y2="394.3"/>
	<circle id="XMLID_11_" style="fill:none;stroke:#D93F46;stroke-width:2;stroke-miterlimit:10;" cx="457.9" cy="402.3" r="2.9"/>
	<line id="XMLID_8_" style="fill:none;stroke:#D93F46;stroke-miterlimit:10;" x1="467.7" y1="402.8" x2="482.7" y2="402.8"/>
	<line id="XMLID_10_" style="fill:none;stroke:#D93F46;stroke-miterlimit:10;" x1="433.7" y1="402.8" x2="448.7" y2="402.8"/>
	
		<line id="XMLID_26_" style="fill:none;stroke:#D93F46;stroke-width:2;stroke-miterlimit:10;" x1="441.7" y1="369.3" x2="465.7" y2="369.3"/>
	
		<line id="XMLID_27_" style="fill:none;stroke:#D93F46;stroke-width:2;stroke-miterlimit:10;" x1="441.7" y1="376.3" x2="474.7" y2="376.3"/>
	
		<line id="XMLID_28_" style="fill:none;stroke:#D93F46;stroke-width:2;stroke-miterlimit:10;" x1="441.7" y1="381.3" x2="453.7" y2="381.3"/>
	<circle id="XMLID_25_" style="fill:none;stroke:#D93F46;stroke-width:2;stroke-miterlimit:10;" cx="457.9" cy="340.3" r="14.3"/>
	
		<line id="XMLID_29_" style="fill:none;stroke:#D93F46;stroke-width:2;stroke-miterlimit:10;" x1="468.7" y1="369.3" x2="474.7" y2="369.3"/>
	
		<line id="XMLID_30_" style="fill:none;stroke:#D93F46;stroke-width:2;stroke-miterlimit:10;" x1="457.7" y1="381.3" x2="461.7" y2="381.3"/>
	
		<line id="XMLID_31_" style="fill:none;stroke:#D93F46;stroke-width:2;stroke-miterlimit:10;" x1="426.7" y1="311.3" x2="488.7" y2="311.3"/>
	
		<line id="XMLID_32_" style="fill:none;stroke:#D93F46;stroke-width:2;stroke-miterlimit:10;" x1="454.7" y1="307.3" x2="464.7" y2="307.3"/>
	
		<line id="XMLID_33_" style="fill:none;stroke:#D93F46;stroke-width:2;stroke-miterlimit:10;" x1="451.7" y1="307.3" x2="453.7" y2="307.3"/>
	<path id="XMLID_38_" style="fill:none;stroke:#D93F46;stroke-width:2;stroke-miterlimit:10;" d="M571.2,467.3H15.5
		c-8,0-14.5-6.5-14.5-14.5l0,0c0-8,6.5-14.5,14.5-14.5h555.7c8,0,14.5,6.5,14.5,14.5l0,0C585.7,460.8,579.2,467.3,571.2,467.3z"/>
	<circle id="XMLID_43_" style="fill:none;stroke:#D93F46;stroke-miterlimit:10;" cx="373.5" cy="389.8" r="3.7"/>
	
		<line id="XMLID_18_" style="fill:none;stroke:#D93F46;stroke-width:2;stroke-miterlimit:10;" x1="59.7" y1="370.3" x2="48.7" y2="343.2"/>
	
		<line id="XMLID_15_" style="fill:none;stroke:#D93F46;stroke-width:2;stroke-miterlimit:10;" x1="58.5" y1="339.2" x2="70.9" y2="370.3"/>
	<polygon id="XMLID_47_" style="fill:none;stroke:#D93F46;stroke-width:2;stroke-miterlimit:10;" points="53.9,341.3 51.6,343.5 
		48.7,343.2 47.3,325.4 58.6,339.3 57.2,341.3 	"/>
	<line id="XMLID_48_" style="fill:none;stroke:#D93F46;stroke-miterlimit:10;" x1="47.6" y1="329.7" x2="50.1" y2="328.7"/>
	<line id="XMLID_50_" style="fill:none;stroke:#D93F46;stroke-miterlimit:10;" x1="53.9" y1="341.3" x2="65.3" y2="370.3"/>
	<polyline id="XMLID_17_" style="fill:none;stroke:#D93F46;stroke-width:2;stroke-miterlimit:10;" points="120.3,416.3 120.3,438.3 
		59.7,438.3 59.7,370.3 120.3,370.3 120.3,408.9 	"/>
	<g id="XMLID_62_">
		<path id="XMLID_59_" style="fill:none;stroke:#D93F46;stroke-width:2;stroke-miterlimit:10;" d="M80.7,383.3c0,20,7.8,33,7.8,33
			h35.2c0,0-7.8-13-7.8-33H80.7z"/>
		
			<line id="XMLID_60_" style="fill:none;stroke:#D93F46;stroke-width:2;stroke-miterlimit:10;" x1="88.7" y1="392.3" x2="110.7" y2="392.3"/>
		
			<line id="XMLID_61_" style="fill:none;stroke:#D93F46;stroke-width:2;stroke-miterlimit:10;" x1="90.7" y1="400.3" x2="111.7" y2="400.3"/>
		
			<line id="XMLID_58_" style="fill:none;stroke:#D93F46;stroke-width:2;stroke-miterlimit:10;" x1="93.7" y1="408.3" x2="113.7" y2="408.3"/>
	</g>
	<path id="XMLID_20_" style="fill:none;stroke:#D93F46;stroke-width:2;stroke-miterlimit:10;" d="M157.3,418.2L157.3,418.2
		c0-2.2,1.8-3.9,3.9-3.9l0,0c2.2,0,3.9,1.8,3.9,3.9l0,0"/>
	<path id="XMLID_52_" style="fill:none;stroke:#D93F46;stroke-width:2;stroke-miterlimit:10;" d="M158,418.2h6.6
		c7.2,0,13.1,5.9,13.1,13.1l0,0h-32.8l0,0C144.9,424.1,150.8,418.2,158,418.2z"/>
	<path id="XMLID_53_" style="fill:none;stroke:#D93F46;stroke-width:2;stroke-miterlimit:10;" d="M144.9,431.3h32.8l0,0
		c0,3.2-2.6,5.8-5.8,5.8h-21.2C147.5,437.1,144.9,434.5,144.9,431.3L144.9,431.3z"/>
	<path id="XMLID_13_" style="fill:none;stroke:#D93F46;stroke-width:2;stroke-miterlimit:10;" d="M193.1,438.3"/>
</g>
<polygon id="XMLID_19_" style="fill:none;stroke:#D87741;stroke-miterlimit:10;" points="112.9,49.1 74.6,80.8 66.3,31.8 "/>
<line id="XMLID_22_" style="fill:none;stroke:#D87741;stroke-miterlimit:10;" x1="62.9" y1="228.3" x2="163.3" y2="259.3"/>
<line id="XMLID_23_" style="fill:none;stroke:#D93F46;stroke-width:2;stroke-miterlimit:10;" x1="103.7" y1="189.5" x2="47.3" y2="137.4"/>
<polygon id="XMLID_21_" style="fill:none;stroke:#D93F46;stroke-width:2;stroke-miterlimit:10;" points="480.3,81.5 463.8,81.9 
	458.3,66.3 471.4,56.3 485,65.6 "/>
<polygon id="XMLID_24_" style="fill:none;stroke:#D87741;stroke-miterlimit:10;" points="589.4,167.8 529.1,127.4 594.3,95.4 "/>
<line id="XMLID_37_" style="fill:none;stroke:#D93F46;stroke-miterlimit:10;" x1="413.7" y1="163.4" x2="495.5" y2="113.1"/>
<line id="XMLID_39_" style="fill:none;stroke:#D93F46;stroke-miterlimit:10;" x1="578" y1="299.7" x2="594.3" y2="249.6"/>
<line id="XMLID_40_" style="fill:none;stroke:#D93F46;stroke-width:2;stroke-miterlimit:10;" x1="604.2" y1="294.8" x2="660.3" y2="241.6"/>
<line id="XMLID_41_" style="fill:none;stroke:#D93F46;stroke-miterlimit:10;" x1="250.6" y1="0.1" x2="243.7" y2="31.9"/>
<polygon id="XMLID_36_" style="fill:none;stroke:#D93F46;stroke-miterlimit:10;" points="192.8,184.4 189.4,202.9 175,190.7 "/>
</svg>
