<?xml version="1.0" encoding="utf-8"?>
<!-- Generator: Adobe Illustrator 19.0.0, SVG Export Plug-In . SVG Version: 6.00 Build 0)  -->
<svg version="1.1" id="Layer_1" xmlns="http://www.w3.org/2000/svg" xmlns:xlink="http://www.w3.org/1999/xlink" x="0px" y="0px"
	 viewBox="0 0 586.7 332" style="enable-background:new 0 0 586.7 332;" xml:space="preserve">
<rect id="XMLID_37_" x="80.3" y="109.4" transform="matrix(0.9925 -0.1219 0.1219 0.9925 -19.6107 11.456)" style="fill:none;stroke:#E5424A;stroke-width:2;stroke-miterlimit:10;" width="7" height="113.1"/>
<path id="XMLID_51_" style="fill:none;stroke:#E5424A;stroke-width:2;stroke-miterlimit:10;" d="M72.7,146.5l-3.6-29.2
	c-0.3-2.7,1.6-5.2,4.3-5.5h0"/>
<path id="XMLID_45_" style="fill:#FFFFFF;stroke:#E5424A;stroke-width:2;stroke-miterlimit:10;" d="M86.9,149.1l-10.2,1.3l-5.2-42.4
	c-0.2-1.9,1.1-3.6,3-3.8l3.4-0.4c1.9-0.2,3.6,1.1,3.8,3L86.9,149.1z"/>
<path id="XMLID_39_" style="fill:none;stroke:#E5424A;stroke-width:2;stroke-miterlimit:10;" d="M300.5,194.3
	c0,37.5-113.8,9.3-113.8,58.8s0,50,0,50"/>
<path id="XMLID_15_" style="fill:none;stroke:#E5424A;stroke-width:2;stroke-miterlimit:10;" d="M508.2,1H238.6
	c-6.5,0-12,5.1-12,11.6v169.6c0,6.5,5.4,11.8,12,11.8h126v26h-41.7c-8.8,0-16,7.2-16,16v0h133v0c0-8.8-7.2-16-16-16h-42.3v-26h126.6
	c6.5,0,11.4-5.2,11.4-11.8V12.6C519.7,6.1,514.8,1,508.2,1z"/>
<rect id="XMLID_2_" x="241.7" y="17" style="fill:none;stroke:#E5424A;stroke-width:2;stroke-miterlimit:10;" width="263.5" height="160.8"/>
<circle id="XMLID_3_" style="fill:none;stroke:#E5424A;stroke-width:2;stroke-miterlimit:10;" cx="273.7" cy="73.9" r="12.8"/>
<path id="XMLID_4_" style="fill:none;stroke:#E5424A;stroke-width:2;stroke-miterlimit:10;" d="M439.4,39.3h-132
	c-3.1,0-5.6-2.5-5.6-5.6v-0.3c0-3.1,2.5-5.6,5.6-5.6h132c3.1,0,5.6,2.5,5.6,5.6v0.3C445,36.7,442.5,39.3,439.4,39.3z"/>
<rect id="XMLID_5_" x="300.5" y="67.9" style="fill:none;stroke:#E5424A;stroke-miterlimit:10;" width="47.4" height="11.5"/>
<rect id="XMLID_6_" x="300.5" y="86.8" style="fill:none;stroke:#E5424A;stroke-miterlimit:10;" width="73" height="11.5"/>
<rect id="XMLID_34_" x="300.5" y="106.5" style="fill:none;stroke:#E5424A;stroke-miterlimit:10;" width="59.7" height="11.5"/>
<rect id="XMLID_35_" x="360.2" y="67.9" style="fill:none;stroke:#E5424A;stroke-miterlimit:10;" width="34.5" height="11.5"/>
<g id="XMLID_49_">
	<circle id="XMLID_36_" style="fill:none;stroke:#E5424A;stroke-width:2;stroke-miterlimit:10;" cx="472.2" cy="153.2" r="9.9"/>
	<path id="XMLID_7_" style="fill:#FFFFFF;stroke:#E5424A;stroke-width:2;stroke-miterlimit:10;" d="M480.1,217h-45c-4.9,0-9-4-9-9
		v-89.4c0-4.9,4-9,9-9h45c4.9,0,9,4,9,9V208C489,213,485,217,480.1,217z"/>
	
		<line id="XMLID_9_" style="fill:#FFFFFF;stroke:#E5424A;stroke-width:2;stroke-miterlimit:10;" x1="426.7" y1="201" x2="488.7" y2="201"/>
	<circle id="XMLID_11_" style="fill:#FFFFFF;stroke:#E5424A;stroke-width:2;stroke-miterlimit:10;" cx="457.9" cy="209" r="2.9"/>
	<line id="XMLID_8_" style="fill:#FFFFFF;stroke:#E5424A;stroke-miterlimit:10;" x1="467.7" y1="209.5" x2="482.7" y2="209.5"/>
	<line id="XMLID_1_" style="fill:#FFFFFF;stroke:#E5424A;stroke-miterlimit:10;" x1="433.7" y1="209.5" x2="448.7" y2="209.5"/>
	
		<line id="XMLID_26_" style="fill:#FFFFFF;stroke:#E5424A;stroke-width:2;stroke-miterlimit:10;" x1="441.7" y1="176" x2="465.7" y2="176"/>
	
		<line id="XMLID_27_" style="fill:#FFFFFF;stroke:#E5424A;stroke-width:2;stroke-miterlimit:10;" x1="441.7" y1="183" x2="474.7" y2="183"/>
	
		<line id="XMLID_28_" style="fill:#FFFFFF;stroke:#E5424A;stroke-width:2;stroke-miterlimit:10;" x1="441.7" y1="188" x2="453.7" y2="188"/>
	<circle id="XMLID_25_" style="fill:#FFFFFF;stroke:#E5424A;stroke-width:2;stroke-miterlimit:10;" cx="457.9" cy="147" r="14.3"/>
	
		<line id="XMLID_29_" style="fill:#FFFFFF;stroke:#E5424A;stroke-width:2;stroke-miterlimit:10;" x1="468.7" y1="176" x2="474.7" y2="176"/>
	
		<line id="XMLID_30_" style="fill:#FFFFFF;stroke:#E5424A;stroke-width:2;stroke-miterlimit:10;" x1="457.7" y1="188" x2="461.7" y2="188"/>
	
		<line id="XMLID_31_" style="fill:#FFFFFF;stroke:#E5424A;stroke-width:2;stroke-miterlimit:10;" x1="426.7" y1="118" x2="488.7" y2="118"/>
	
		<line id="XMLID_32_" style="fill:#FFFFFF;stroke:#E5424A;stroke-width:2;stroke-miterlimit:10;" x1="454.7" y1="114" x2="464.7" y2="114"/>
	
		<line id="XMLID_33_" style="fill:#FFFFFF;stroke:#E5424A;stroke-width:2;stroke-miterlimit:10;" x1="451.7" y1="114" x2="453.7" y2="114"/>
</g>
<path id="XMLID_38_" style="fill:#FFFFFF;stroke:#E5424A;stroke-width:2;stroke-miterlimit:10;" d="M571.2,265H15.5
	c-8,0-14.5-6.5-14.5-14.5v0c0-8,6.5-14.5,14.5-14.5h555.7c8,0,14.5,6.5,14.5,14.5v0C585.7,258.5,579.2,265,571.2,265z"/>
<path id="XMLID_40_" style="fill:#FFFFFF;stroke:#E5424A;stroke-width:2;stroke-miterlimit:10;" d="M195.7,323.7h-18v-13.1
	c0-4.2,3.4-7.7,7.7-7.7h2.7c4.2,0,7.7,3.4,7.7,7.7V323.7z"/>
<line id="XMLID_42_" style="fill:#FFFFFF;stroke:#E5424A;stroke-width:2;stroke-miterlimit:10;" x1="181.7" y1="324" x2="181.7" y2="332"/>
<line id="XMLID_41_" style="fill:#FFFFFF;stroke:#E5424A;stroke-width:2;stroke-miterlimit:10;" x1="190.7" y1="324" x2="190.7" y2="332"/>
<circle id="XMLID_43_" style="fill:none;stroke:#E5424A;stroke-miterlimit:10;" cx="373.5" cy="187.5" r="3.7"/>
<polyline id="XMLID_46_" style="fill:none;stroke:#E5424A;stroke-width:2;stroke-miterlimit:10;" points="58.5,136.9 79,188.3 
	69.2,192.3 48.7,140.9 "/>
<polygon id="XMLID_47_" style="fill:none;stroke:#E5424A;stroke-width:2;stroke-miterlimit:10;" points="53.9,139 51.6,141.2 
	48.7,140.9 47.3,123.1 58.6,137 57.2,139 "/>
<line id="XMLID_48_" style="fill:none;stroke:#E5424A;stroke-miterlimit:10;" x1="47.6" y1="127.4" x2="50.1" y2="126.4"/>
<line id="XMLID_50_" style="fill:none;stroke:#E5424A;stroke-miterlimit:10;" x1="53.9" y1="139" x2="74.4" y2="191.1"/>
<rect id="XMLID_44_" x="59.7" y="168" style="fill:#FFFFFF;stroke:#E5424A;stroke-width:2;stroke-miterlimit:10;" width="60.7" height="68"/>
<g id="XMLID_62_">
	<path id="XMLID_59_" style="fill:#FFFFFF;stroke:#E5424A;stroke-width:2;stroke-miterlimit:10;" d="M80.7,181c0,20,7.8,33,7.8,33
		h35.2c0,0-7.8-13-7.8-33H80.7z"/>
	<line id="XMLID_60_" style="fill:#FFFFFF;stroke:#E5424A;stroke-miterlimit:10;" x1="88.7" y1="189.5" x2="110.7" y2="189.5"/>
	<line id="XMLID_61_" style="fill:#FFFFFF;stroke:#E5424A;stroke-miterlimit:10;" x1="90.7" y1="197.5" x2="111.7" y2="197.5"/>
	<line id="XMLID_58_" style="fill:#FFFFFF;stroke:#E5424A;stroke-miterlimit:10;" x1="93.7" y1="205.5" x2="113.7" y2="205.5"/>
</g>
<path id="XMLID_54_" style="fill:#FFFFFF;stroke:#E5424A;stroke-miterlimit:10;" d="M161.3,219.8L161.3,219.8
	c-2.2,0-3.9-1.8-3.9-3.9l0,0c0-2.2,1.8-3.9,3.9-3.9l0,0c2.2,0,3.9,1.8,3.9,3.9l0,0C165.2,218.1,163.5,219.8,161.3,219.8z"/>
<path id="XMLID_52_" style="fill:#FFFFFF;stroke:#E5424A;stroke-width:2;stroke-miterlimit:10;" d="M158,215.9h6.6
	c7.2,0,13.1,5.9,13.1,13.1v0h-32.8v0C144.9,221.8,150.8,215.9,158,215.9z"/>
<path id="XMLID_53_" style="fill:#FFFFFF;stroke:#E5424A;stroke-width:2;stroke-miterlimit:10;" d="M144.9,229h32.8v0
	c0,3.2-2.6,5.8-5.8,5.8h-21.2C147.5,234.8,144.9,232.2,144.9,229L144.9,229z"/>
</svg>
