<?xml version="1.0" encoding="utf-8"?>
<!-- Generator: Adobe Illustrator 19.0.0, SVG Export Plug-In . SVG Version: 6.00 Build 0)  -->
<svg version="1.1" id="Layer_1" xmlns="http://www.w3.org/2000/svg" xmlns:xlink="http://www.w3.org/1999/xlink" x="0px" y="0px"
	 viewBox="-569.3 -124 757.5 860" style="enable-background:new -569.3 -124 757.5 860;" xml:space="preserve">
<title>HTML5 Logo Badge</title>
<path style="fill:#E34F26;" d="M-500.4,648.7L-569.3-124h757.5l-68.9,772.7L-191.3,736"/>
<path style="fill:#EF652A;" d="M-189.7,668.8l250.3-68.9l58.8-661.8h-309.1"/>
<path style="fill:#EBEBEB;" d="M-189.7,225.4h-126L-324,128h134.4V33.9h-1.7h-236.8l1.7,25.2l23.5,262h213.3V225.4z M-189.7,472.3
	h-1.7l-105.8-28.6l-6.7-75.6h-50.4h-43.7l11.8,149.5l194.8,53.8h1.7V472.3z"/>
<path style="fill:#FFFFFF;" d="M-191.3,225.4v95.7h117.6l-11.8,122.6l-105.8,28.6v99.1L3.5,517.6l1.7-16.8L27,250.6l3.4-25.2H3.5
	H-191.3z M-191.3,33.9v58.8V128l0,0H38.8l0,0l0,0l1.7-20.2l5-48.7l1.7-25.2H-191.3z"/>
</svg>
