<?xml version="1.0" encoding="utf-8"?>
<!-- Generator: Adobe Illustrator 19.0.0, SVG Export Plug-In . SVG Version: 6.00 Build 0)  -->
<svg version="1.1" id="Layer_1" 
	 xmlns="http://www.w3.org/2000/svg" xmlns:xlink="http://www.w3.org/1999/xlink" x="0px" y="0px" viewBox="-454 256 50 50"
	 style="enable-background:new -454 256 50 50;" xml:space="preserve">
<title></title>
<path style="fill:#FFFFFF;" d="M-429,256c-13.8,0-25,11.2-25,25s11.2,25,25,25s25-11.2,25-25S-415.2,256-429,256z M-429,303
	c-12.2,0-22-9.8-22-22s9.8-22,22-22s22,9.8,22,22S-416.8,303-429,303z"/>
<rect x="-440" y="276.1" style="fill:#FFFFFF;" width="4.7" height="14.5"/>
<path style="fill:#FFFFFF;" d="M-437.3,269c-1.6,0-2.7,1.1-2.7,2.5c0,1.4,1,2.5,2.6,2.5h0c1.6,0,2.7-1.1,2.7-2.5
	C-434.7,270.1-435.7,269-437.3,269z"/>
<path style="fill:#FFFFFF;" d="M-423.4,276.1c-2.5,0-3.6,1.4-4.2,2.4v-2.1h-4.7c0.1,1.4,0,14.5,0,14.5h4.7v-8.1c0-0.4,0-0.9,0.2-1.2
	c0.3-0.9,1.1-1.8,2.4-1.8c1.7,0,2.4,1.3,2.4,3.3v7.8h4.7l0-8.3C-418,278.2-420.3,276.1-423.4,276.1z"/>
</svg>
