<?xml version="1.0" encoding="utf-8"?>
<!-- Generator: Adobe Illustrator 19.0.0, SVG Export Plug-In . SVG Version: 6.00 Build 0)  -->
<svg version="1.1" id="Layer_1" xmlns="http://www.w3.org/2000/svg" xmlns:xlink="http://www.w3.org/1999/xlink" x="0px" y="0px"
	 viewBox="0 0 354 358.6" style="enable-background:new 0 0 354 358.6;" xml:space="preserve">
<polygon id="XMLID_3_" style="opacity:0.4;fill:#E5428C;" points="177,306.4 88.5,357.6 0,306.4 0,204.1 88.5,153 177,204.1 "/>
<polygon id="XMLID_4_" style="opacity:0.4;fill:#E55B52;" points="266,153.4 177.5,204.6 89,153.4 89,51.1 177.5,0 266,51.1 "/>
<polygon id="XMLID_2_" style="opacity:0.4;fill:#E5425E;" points="354,307.4 265.5,358.6 177,307.4 177,205.1 265.5,154 354,205.1 
	"/>
<polygon id="XMLID_1_" style="fill:#E5424A;" points="266,255.4 177.5,306.6 89,255.4 89,153.1 177.5,102 266,153.1 "/>
<polygon id="XMLID_6_" style="fill:#CC1746;" points="89,255.4 177.5,204.6 89,153.4 "/>
<polygon id="XMLID_7_" style="fill:#E55E5E;" points="177.5,204.5 266,255.4 266,153.3 "/>
<polygon id="XMLID_8_" style="fill:#ED8A8A;" points="177,204.3 177,102.3 266,153.3 "/>
<g id="XMLID_5_">
	<path id="XMLID_10_" style="fill:#FFFFFF;" d="M329.7,128.6l-143.8,82.1v124.6H165V211.7L22.3,116.6l17.3-14.3l136.2,90.1L315,112
		L329.7,128.6z"/>
</g>
</svg>
