<?xml version="1.0" encoding="utf-8"?>
<!-- Generator: Adobe Illustrator 19.0.0, SVG Export Plug-In . SVG Version: 6.00 Build 0)  -->
<svg version="1.1" id="Layer_1" xmlns="http://www.w3.org/2000/svg" xmlns:xlink="http://www.w3.org/1999/xlink" x="0px" y="0px"
	 viewBox="-1033.2 -422.9 1559.5 1559.1" style="enable-background:new -1033.2 -422.9 1559.5 1559.1;" xml:space="preserve">
<path style="fill:#E5424A;" d="M-40.4-7.3C34.4,9.9,93.8,73.9,111.4,143.3c6.1,32.4,34.3,57.2,68.3,57.2c38.1,0,69.4-31.3,69.4-69.4
	c0-50-41.9-125.8-99.1-182.6c-56.4-55.3-123.2-94.6-178.1-94.6c-38.1,0-69.4,32-69.4,70.2C-97.6-41.6-73.2-13.4-40.4-7.3z
	 M-992.9,901c-53.8,53.8-53.8,141.1,0,194.8s141.1,53.8,194.5,0l398.1-397.7c92.7,58,202.5,91.5,320.3,91.5
	c335.2,0,606.3-271.1,606.3-606.3S255.1-422.9-80-422.9s-606.3,271.1-606.3,606.3c0,117.4,33.6,227.3,91.5,320.3L-992.9,901z
	 M-513.2,183.4c0-239.1,194.1-433.2,433.2-433.2S353.1-55.7,353.1,183.4S159,616.5-80,616.5S-513.2,422.5-513.2,183.4z"/>
</svg>
