<?xml version="1.0" encoding="utf-8"?>
<!-- Generator: Adobe Illustrator 19.0.0, SVG Export Plug-In . SVG Version: 6.00 Build 0)  -->
<svg version="1.1" id="Layer_1" xmlns="http://www.w3.org/2000/svg" xmlns:xlink="http://www.w3.org/1999/xlink" x="0px" y="0px"
	 viewBox="-191 121 448 320" style="enable-background:new -191 121 448 320;" xml:space="preserve">
<g>
	<path style="fill:#48D376;" d="M229,121h-392c-15.5,0-27.9,12.5-28,28l0,0v0.3v263.4v0.3l0,0c0.2,15.5,12.5,28,28,28h392
		c15.6,0,28-12.7,28-28.3l0,0V149.3l0,0C257,133.7,244.6,121,229,121z M-145.9,153h357.7c6.9,0,12.1,5.1,13.1,12v20H-159v-20.3
		C-158,157.9-152.7,153-145.9,153z M211.9,409h-357.8c-6.9,0-12.1-4.9-13.1-11.7V281h384v116C224,403.9,218.7,409,211.9,409z"/>
	<rect x="-127" y="329" style="fill:#48D376;" width="192" height="16"/>
	<rect x="-127" y="361" style="fill:#48D376;" width="96" height="16"/>
	<rect x="129" y="329" style="fill:#48D376;" width="64" height="48"/>
</g>
</svg>
