<?xml version="1.0" encoding="utf-8"?>
<!-- Generator: Adobe Illustrator 19.0.0, SVG Export Plug-In . SVG Version: 6.00 Build 0)  -->
<svg version="1.1" id="Layer_1" xmlns="http://www.w3.org/2000/svg" xmlns:xlink="http://www.w3.org/1999/xlink" x="0px" y="0px"
	 viewBox="-438.4 258.8 46.8 44.2" style="enable-background:new -438.4 258.8 46.8 44.2;" xml:space="preserve">
<g>
	<g id="Icon-Cart" transform="translate(76.000000, 478.000000)">
		<path id="Fill-110" style="fill:#FFFFFF;" d="M-474.5-183.3h-30.3c-0.5,0-0.9-0.2-1.1-0.6c-0.3-0.4-0.3-0.9-0.1-1.3l2.6-6.6
			l-2.6-24.6h-8.4v-2.8h9.6c0.7,0,1.3,0.5,1.4,1.2l2.8,26.1c0,0.2,0,0.4-0.1,0.7l-2,5h28.2V-183.3"/>
		<path id="Fill-111" style="fill:#FFFFFF;" d="M-501.7-190.2l-0.6-2.7l31.9-6.6v-11.3h-33v-2.8h34.4c0.8,0,1.4,0.6,1.4,1.4v13.8
			c0,0.7-0.5,1.2-1.1,1.3L-501.7-190.2"/>
		<path id="Fill-112" style="fill:#FFFFFF;" d="M-473.1-175c-3,0-5.5-2.5-5.5-5.5s2.5-5.5,5.5-5.5s5.5,2.5,5.5,5.5
			S-470.1-175-473.1-175L-473.1-175z M-473.1-183.3c-1.5,0-2.8,1.2-2.8,2.8s1.2,2.8,2.8,2.8s2.8-1.2,2.8-2.8
			S-471.6-183.3-473.1-183.3L-473.1-183.3z"/>
		<path id="Fill-113" style="fill:#FFFFFF;" d="M-506.1-175c-3,0-5.5-2.5-5.5-5.5s2.5-5.5,5.5-5.5s5.5,2.5,5.5,5.5
			S-503.1-175-506.1-175L-506.1-175z M-506.1-183.3c-1.5,0-2.8,1.2-2.8,2.8s1.2,2.8,2.8,2.8s2.8-1.2,2.8-2.8
			S-504.6-183.3-506.1-183.3L-506.1-183.3z"/>
	</g>
</g>
</svg>
