<?xml version="1.0" encoding="utf-8"?>
<!-- Generator: Adobe Illustrator 19.0.0, SVG Export Plug-In . SVG Version: 6.00 Build 0)  -->
<svg version="1.1" id="Layer_1" xmlns="http://www.w3.org/2000/svg" xmlns:xlink="http://www.w3.org/1999/xlink" x="0px" y="0px"
	 viewBox="0 0 46.9 66.4" style="enable-background:new 0 0 46.9 66.4;" xml:space="preserve">
<path id="XMLID_6_" style="fill:#B2B2B2;" d="M23.5,34.2c-5.9,0-10.6-4.8-10.6-10.7c0-5.9,4.8-10.7,10.6-10.7s10.6,4.8,10.6,10.7
	C34.1,29.5,29.3,34.2,23.5,34.2 M23.5,0C10.5,0,0,10.6,0,23.6c0,12.3,10.6,28.2,17.7,36c2.7,2.9,5.7,6.8,5.7,6.8s3.3-3.9,6.2-6.9
	c7.1-7.4,17.3-22.3,17.3-35.9C46.9,10.6,36.4,0,23.5,0"/>
</svg>
