<?xml version="1.0" encoding="utf-8"?>
<!-- Generator: Adobe Illustrator 19.0.0, SVG Export Plug-In . SVG Version: 6.00 Build 0)  -->
<svg version="1.1" id="Layer_1" xmlns="http://www.w3.org/2000/svg" xmlns:xlink="http://www.w3.org/1999/xlink" x="0px" y="0px"
	 viewBox="0 0 423.2 141.2" style="enable-background:new 0 0 423.2 141.2;" xml:space="preserve">
<g id="XMLID_2_">
	<g id="XMLID_7_">
		<path id="XMLID_8_" style="fill:#FFFFFF;" d="M24.8,0c-1.5,0-2.5,1.2-2.5,2.7v22.4v9.7v1.1c-1,1.2-1.7,2.2-3,2.2
			c-1.5,0-3-1.2-3-2.7V20.6V2.7c0-1.5-1-2.7-2.5-2.7s-2.5,1.2-2.5,2.7v17.9v14.8c0,1.5-1.5,2.7-3,2.7c-1.5,0-3-1.2-3-2.7V3.2h0.3
			c0,0,0-0.3,0-0.3c0-1.5-1.2-2.7-2.7-2.7c-1.5,0-2.7,1.3-2.7,2.8c0,0,0,0.3,0,0.3h0.1v42H0.2c0,0-0.2,0.1-0.2,0.2
			C0,56,3.3,65.1,8.3,68.9v13.3h11V68.9c5-3.7,8.3-12.9,8.3-23.6c0,0-0.2-0.2-0.2-0.2h-0.1V2.7C27.3,1.2,26.3,0,24.8,0z"/>
		<polygon id="XMLID_9_" style="fill:#FFFFFF;" points="4.3,92.2 5.3,92.2 5.3,141.2 22.3,141.2 22.3,92.2 23.3,92.2 23.3,82.2 
			4.3,82.2 		"/>
		<path id="XMLID_10_" style="fill:#FFFFFF;" d="M65.3,101.2V43.7V0c-9,2.8-16.2,11.6-16.2,22c0,0,0.1,0.2,0.1,0.2h0.1v79h-2v10h2
			v30h16v-30h2v-10H65.3z"/>
	</g>
	<g id="XMLID_18_">
		<path id="XMLID_19_" style="fill:#FFFFFF;" d="M138.3,122.2l-0.1-6.2c-3.1,5-7.8,7.6-14.2,7.6c-3.2,0-6.2-0.6-8.9-1.9
			c-2.7-1.2-5-3-6.9-5.4c-1.9-2.3-3.5-5.2-4.6-8.6c-1.1-3.4-1.7-7.2-1.7-11.5c0-3.9,0.5-7.4,1.4-10.6c0.9-3.2,2.3-6,4.1-8.3
			c1.8-2.3,4-4.2,6.6-5.4c2.6-1.3,5.5-1.9,8.8-1.9c6.3,0,11.3,2.7,15.1,8V52.6h13.2v69.6H138.3z M127.1,112.5c3.2,0,6-1.3,8.1-4
			c2.2-2.7,3.3-6.2,3.3-10.6c0-11-3.8-16.6-11.3-16.6c-7.7,0-11.6,5.2-11.6,15.7c0,4.6,1.1,8.3,3.2,11.1
			C121,111.1,123.7,112.5,127.1,112.5z"/>
		<path id="XMLID_22_" style="fill:#FFFFFF;" d="M168.9,100.2c0.2,3.9,1.3,6.9,3.4,9.2c2,2.3,4.7,3.4,8,3.4c2.2,0,4.2-0.5,5.8-1.5
			c1.7-1,2.8-2.4,3.3-4.2h13.9c-1.6,5.2-4.3,9.3-8.3,12.1c-3.9,2.8-8.6,4.2-14.1,4.2c-17,0-25.5-9.2-25.5-27.7
			c0-3.9,0.6-7.5,1.7-10.7c1.1-3.2,2.7-5.9,4.8-8.2c2.1-2.3,4.7-4,7.7-5.2c3-1.2,6.5-1.8,10.5-1.8c7.9,0,13.8,2.5,17.9,7.6
			c4,5,6.1,12.6,6.1,22.8H168.9z M190.2,91.7c-0.1-1.9-0.4-3.5-1-4.9c-0.6-1.4-1.4-2.6-2.3-3.5c-1-0.9-2.1-1.6-3.3-2.1
			c-1.2-0.4-2.5-0.7-3.8-0.7c-2.7,0-5,1-7,2.9c-2,2-3.1,4.7-3.4,8.2H190.2z"/>
		<path id="XMLID_25_" style="fill:#FFFFFF;" d="M208.2,122.2V52.6h13.5v69.6H208.2z"/>
		<path id="XMLID_27_" style="fill:#FFFFFF;" d="M227.2,65.1V52.6h13.5v12.5H227.2z M227.2,122.2V71.2h13.5v50.9H227.2z"/>
	</g>
	<g id="XMLID_4_">
		<path id="XMLID_5_" style="fill:#FFFFFF;" d="M277.5,123.2c-7.9,0-14-2.5-18.4-7.4c-4.4-5-6.7-11.9-6.7-20.7
			c0-9.1,2.3-16.2,6.9-21.3c4.6-5.1,10.9-7.6,19-7.6c4.8,0,9.3,0.8,13.6,2.5l-1.4,4.4c-4.8-1.6-8.9-2.4-12.4-2.4
			c-6.7,0-11.8,2.1-15.3,6.2c-3.5,4.2-5.2,10.2-5.2,18c0,7.4,1.7,13.2,5.2,17.4c3.5,4.2,8.3,6.3,14.6,6.3c5,0,9.6-0.9,13.9-2.7v4.6
			C287.7,122.3,283.1,123.2,277.5,123.2z"/>
		<path id="XMLID_11_" style="fill:#FFFFFF;" d="M304,52c0-3.2,1.1-4.9,3.2-4.9c1,0,1.9,0.4,2.5,1.3c0.6,0.8,0.9,2,0.9,3.6
			c0,1.5-0.3,2.7-0.9,3.6c-0.6,0.9-1.4,1.3-2.5,1.3C305,56.9,304,55.2,304,52z M309.7,122.2h-5V67.2h5V122.2z"/>
		<path id="XMLID_14_" style="fill:#FFFFFF;" d="M332.4,67.2v35.6c0,5.5,1.2,9.5,3.5,12.1c2.3,2.5,5.9,3.8,10.8,3.8
			c6.5,0,11.3-1.7,14.4-5s4.6-8.7,4.6-16.1V67.2h5v54.9h-4.2l-0.9-7.6h-0.3c-3.6,5.7-9.9,8.6-19.1,8.6c-12.5,0-18.7-6.7-18.7-20.1
			V67.2H332.4z"/>
		<path id="XMLID_16_" style="fill:#FFFFFF;" d="M423.2,107.9c0,4.9-1.9,8.7-5.6,11.3c-3.7,2.6-9,4-15.9,4c-7.3,0-13.2-1.1-17.5-3.4
			v-5.4c5.5,2.8,11.4,4.1,17.5,4.1c5.4,0,9.5-0.9,12.4-2.7c2.8-1.8,4.2-4.2,4.2-7.2c0-2.8-1.1-5.1-3.4-7c-2.2-1.9-5.9-3.7-11-5.6
			c-5.5-2-9.3-3.7-11.6-5.1c-2.2-1.4-3.9-3-5-4.9c-1.1-1.8-1.7-4-1.7-6.6c0-4.1,1.7-7.4,5.2-9.8c3.5-2.4,8.3-3.6,14.5-3.6
			c5.9,0,11.6,1.1,16.9,3.3l-1.9,4.5c-5.4-2.2-10.4-3.3-15-3.3c-4.5,0-8,0.7-10.7,2.2c-2.6,1.5-3.9,3.5-3.9,6.2c0,2.9,1,5.2,3.1,6.9
			c2,1.7,6,3.6,12,5.8c5,1.8,8.6,3.4,10.8,4.8c2.3,1.4,3.9,3.1,5.1,4.9C422.6,103.3,423.2,105.4,423.2,107.9z"/>
	</g>
</g>
</svg>
