<?xml version="1.0" encoding="utf-8"?>
<!-- Generator: Adobe Illustrator 19.0.0, SVG Export Plug-In . SVG Version: 6.00 Build 0)  -->
<svg version="1.1" id="Layer_1" xmlns="http://www.w3.org/2000/svg" xmlns:xlink="http://www.w3.org/1999/xlink" x="0px" y="0px"
	 viewBox="0 0 226.1 226.1" style="enable-background:new 0 0 226.1 226.1;" xml:space="preserve">
<circle id="XMLID_1_" style="fill:none;stroke:#48D376;stroke-width:20;stroke-miterlimit:10;" cx="113" cy="113" r="103"/>
<path id="XMLID_3_" style="fill:none;stroke:#48D376;stroke-width:20;stroke-linecap:round;stroke-miterlimit:10;" d="M170.4,119.8
	c0,31.9-25.9,57.8-57.8,57.8s-57.8-25.9-57.8-57.8"/>
<path id="XMLID_2_" style="fill:#48D376;" d="M90.2,119.8L90.2,119.8c-5.9,0-10.7-4.8-10.7-10.7V81.3c0-5.9,4.8-10.7,10.7-10.7h0
	c5.9,0,10.7,4.8,10.7,10.7v27.8C100.9,115,96.1,119.8,90.2,119.8z"/>
<path id="XMLID_4_" style="fill:#48D376;" d="M141.3,98L141.3,98c-3.3,0-6-2.7-6-6V76.6c0-3.3,2.7-6,6-6h0c3.3,0,6,2.7,6,6v15.5
	C147.3,95.3,144.6,98,141.3,98z"/>
<path id="XMLID_5_" style="fill:#48D376;" d="M141.3,119.8L141.3,119.8c-5.9,0-10.7-4.8-10.7-10.7V81.3c0-5.9,4.8-10.7,10.7-10.7h0
	c5.9,0,10.7,4.8,10.7,10.7v27.8C152,115,147.2,119.8,141.3,119.8z"/>
</svg>
