<?xml version="1.0" encoding="utf-8"?>
<!-- Generator: Adobe Illustrator 19.0.0, SVG Export Plug-In . SVG Version: 6.00 Build 0)  -->
<svg version="1.1" id="Layer_1" xmlns="http://www.w3.org/2000/svg" xmlns:xlink="http://www.w3.org/1999/xlink" x="0px" y="0px"
	 viewBox="0 0 118.8 117.2" style="enable-background:new 0 0 118.8 117.2;" xml:space="preserve">
<path id="XMLID_2_" style="fill:#ffffff;" d="M2.8,114.4c1.9,1.9,4.3,2.8,6.8,2.8c2.5,0,4.9-0.9,6.8-2.8l27-27
	c7.8,5.4,17.2,8.6,27.4,8.6c26.5,0,48-21.5,48-48c0-26.5-21.5-48-48-48c-26.5,0-48,21.5-48,48c0,9.4,2.7,18.1,7.3,25.5L2.8,100.8
	C-0.9,104.5-0.9,110.6,2.8,114.4z M38.3,48c0-17.9,14.5-32.4,32.4-32.4c17.9,0,32.4,14.5,32.4,32.4S88.7,80.4,70.8,80.4
	C52.9,80.4,38.3,65.9,38.3,48z"/>
</svg>
