<?xml version="1.0" encoding="utf-8"?>
<!-- Generator: Adobe Illustrator 19.0.0, SVG Export Plug-In . SVG Version: 6.00 Build 0)  -->
<svg version="1.1" id="Layer_1" xmlns="http://www.w3.org/2000/svg" xmlns:xlink="http://www.w3.org/1999/xlink" x="0px" y="0px"
	 viewBox="-411 206.2 135.9 148.8" style="enable-background:new -411 206.2 135.9 148.8;" xml:space="preserve">
<style type="text/css">
	.st0{fill:#FFFFFF;}
</style>
<path class="st0" d="M-276.4,279.9l-73.7,73.7c-0.1,0.2-0.2,0.3-0.3,0.5c-0.6,0.6-1.5,0.9-2.3,0.9c-0.8,0-1.7-0.3-2.3-0.9
	c-0.1-0.1-0.2-0.3-0.3-0.5l-54.3-54.2c-0.2-0.1-0.4-0.2-0.5-0.3c-0.6-0.6-0.9-1.5-0.9-2.3c0-0.8,0.3-1.7,0.9-2.3
	c0.1-0.2,0.3-0.2,0.5-0.3l73.7-73.7c0.6-0.8,1.5-1.3,2.5-1.3h0.1l0,0h13c0.4-4.9,2.4-9.1,5.4-11.9l0.1,0.1c0.6-0.8,1.5-1.2,2.5-1.2
	c1.9,0,3.5,1.7,3.5,3.7c0,1.2-0.6,2.2-1.4,2.9c-1.5,1.4-2.7,3.7-3,6.3h15.4l0,0h0.1c1,0,1.9,0.5,2.5,1.3l18.9,18.9
	c0.8,0.6,1.3,1.5,1.3,2.5v0.1l0,0v35.4l0,0v0.1C-275.1,278.4-275.7,279.3-276.4,279.9z M-309.9,256.9c-0.6,0.7-1.5,1.1-2.5,1.1
	c-1.9,0-3.5-1.7-3.5-3.7c0-1.2,0.6-2.2,1.4-2.9s1.5-1.7,2-2.9c-2.8,0.7-4.8,3.2-4.8,6.2c0,3.6,2.9,6.5,6.5,6.5
	c3.6,0,6.5-2.9,6.5-6.5c0-1.5-0.5-2.9-1.4-4C-307.7,255.7-309.9,256.9-309.9,256.9z M-281.6,243l-17.4-17.4h-13.6
	c0.6,1.4,1.4,2.7,2.3,3.6l0,0c0.1,0.1,0.3,0.2,0.4,0.3l0.1-0.1c3.4,3.1,5.6,8.1,5.6,13.8c0,0.1,0,0.3,0,0.4
	c3.9,2.2,6.5,6.4,6.5,11.2c0,7.1-5.8,12.9-12.9,12.9s-12.9-5.8-12.9-12.9c0-6.9,5.5-12.6,12.4-12.9c-0.3-2.9-1.4-5.3-3.1-6.9
	c-0.1-0.1-0.3-0.2-0.4-0.3l-0.1,0.1c-2.4-2.2-4.2-5.5-5-9.1h-12.4l-71.2,71.1l50.5,50.5l71.2-71.2C-281.6,276.1-281.6,243-281.6,243
	z M-374.5,291.2c1.2-1.2,3.2-1.2,4.5,0l22.8,22.8c1.2,1.2,1.2,3.2,0,4.5c-1.2,1.2-3.2,1.2-4.5,0l-22.8-22.8
	C-375.7,294.5-375.7,292.5-374.5,291.2z M-361.6,278.3c1.2-1.2,3.2-1.2,4.5,0l22.8,22.8c1.2,1.2,1.2,3.2,0,4.5
	c-1.2,1.2-3.2,1.2-4.5,0l-22.8-22.8C-362.8,281.5-362.8,279.5-361.6,278.3z"/>
</svg>
